<?xml version="1.0" standalone="no"?>
<!DOCTYPE svg PUBLIC "-//W3C//DTD SVG 20010904//EN"
 "http://www.w3.org/TR/2001/REC-SVG-20010904/DTD/svg10.dtd">
<svg version="1.0" xmlns="http://www.w3.org/2000/svg"
 width="720.000000pt" height="891.000000pt" viewBox="0 0 720.000000 891.000000"
 preserveAspectRatio="xMidYMid meet">

<g transform="translate(0.000000,891.000000) scale(0.100000,-0.100000)"
fill="#000000" stroke="none">
<path d="M0 7096 l0 -1815 23 -4 22 -4 -22 -2 c-13 0 -23 -6 -23 -12 0 -7 15
-9 43 -4 33 5 39 4 27 -5 -13 -10 -13 -11 2 -7 9 3 34 9 55 12 30 5 35 4 23
-5 -12 -9 -10 -10 9 -5 12 4 100 8 195 8 94 1 151 5 126 8 -41 5 -39 6 20 7
45 0 59 -2 45 -8 -11 -5 -15 -9 -9 -9 7 -1 23 5 36 12 15 7 64 12 126 12 102
0 108 1 94 20 -8 11 -62 17 -62 6 0 -3 -24 -4 -54 -3 -29 2 -70 -1 -90 -6 -25
-7 -34 -7 -30 0 5 7 -3 9 -22 5 -16 -4 -90 -8 -164 -11 -74 -2 -178 -8 -230
-12 -52 -4 -92 -3 -88 0 3 4 75 11 160 16 197 11 790 48 846 54 43 4 59 -10
20 -18 -167 -32 -207 -42 -246 -62 -35 -18 -49 -21 -60 -12 -9 8 -15 9 -20 1
-4 -6 -27 -11 -52 -12 -120 -3 -243 -19 -317 -42 -28 -9 -32 -14 -27 -34 5
-20 1 -23 -30 -29 -43 -8 -50 -36 -8 -37 84 -3 214 -2 342 1 155 4 293 -6 284
-21 -3 -5 8 -9 24 -9 22 0 29 -4 28 -17 -1 -14 11 -20 51 -28 29 -5 58 -16 65
-22 6 -7 25 -13 40 -13 36 0 88 -26 88 -44 0 -8 12 -17 27 -20 14 -4 35 -18
45 -32 11 -13 26 -24 34 -24 9 0 24 -5 35 -11 16 -8 18 -13 8 -25 -9 -12 -9
-13 3 -9 8 3 23 -3 33 -15 19 -21 8 -28 -14 -7 -7 6 -5 -2 5 -19 10 -17 25
-31 33 -30 12 1 15 -7 13 -26 -3 -26 6 -33 31 -29 5 1 11 -8 14 -19 3 -11 12
-20 19 -20 8 0 14 -4 14 -10 0 -5 8 -10 18 -10 14 0 15 -2 2 -10 -11 -7 -7
-10 18 -10 17 0 32 -4 32 -10 0 -5 -6 -10 -12 -10 -21 0 -307 -29 -513 -51
-110 -13 -221 -19 -265 -16 -41 2 -187 31 -325 65 -314 75 -473 112 -485 112
-7 0 -10 -720 -10 -2030 l0 -2030 40 0 c45 0 50 9 18 29 -20 12 -20 14 -4 23
13 7 21 7 26 -2 6 -9 16 -8 41 5 19 10 37 23 41 29 4 6 8 7 8 1 0 -5 7 1 16
13 11 16 25 22 54 22 29 0 43 6 52 20 15 23 28 26 28 6 0 -11 6 -12 37 -1 25
9 40 10 44 3 3 -5 9 0 12 11 7 28 23 27 31 -1 5 -19 8 -21 16 -8 14 22 12 27
-10 33 -12 3 -20 14 -20 26 0 24 25 28 34 6 4 -12 10 -13 25 -6 22 12 171 12
171 0 0 -5 7 -9 15 -9 8 0 15 5 15 10 0 6 -4 10 -10 10 -5 0 -10 5 -10 10 0
16 27 11 34 -6 5 -13 16 -15 65 -9 33 4 67 3 77 -3 15 -8 14 -11 -7 -26 -23
-16 -23 -16 -2 -16 12 0 28 7 37 15 19 20 60 20 53 1 -5 -11 7 -14 61 -12 37
2 87 -1 112 -6 25 -6 106 -10 180 -10 97 0 145 -4 172 -15 21 -8 49 -12 62 -9
14 3 27 2 30 -2 3 -5 58 -12 122 -16 77 -4 123 -11 137 -21 12 -8 32 -15 44
-15 13 0 23 -5 23 -11 0 -7 12 -10 30 -7 18 3 35 -1 41 -9 6 -7 16 -10 22 -6
5 3 16 -2 24 -12 11 -16 13 -17 13 -3 0 14 7 16 38 11 20 -3 45 -10 54 -14 9
-5 32 -9 50 -9 18 -1 58 -7 88 -14 34 -8 87 -11 138 -8 71 4 82 2 82 -12 0
-17 22 -24 85 -28 22 -2 38 -6 35 -10 -3 -4 10 -23 29 -42 l35 -36 23 22 c21
19 23 20 29 4 5 -13 13 -16 32 -11 21 5 24 3 19 -14 -4 -18 2 -20 69 -26 63
-6 74 -10 74 -26 0 -16 9 -19 63 -21 111 -3 139 -6 151 -18 8 -9 2 -10 -29 -5
-36 6 -38 5 -22 -8 10 -8 16 -20 15 -27 -2 -9 11 -14 37 -16 22 -1 53 -7 68
-13 16 -6 33 -8 39 -5 7 5 8 2 3 -6 -6 -10 -2 -11 19 -6 16 4 33 3 39 -2 12
-9 71 -22 113 -25 11 -1 29 -10 39 -20 14 -15 20 -16 26 -6 10 16 86 14 156
-3 56 -15 71 -32 31 -36 -19 -2 -28 2 -31 15 -3 10 -5 -3 -6 -29 -1 -28 3 -48
10 -48 6 0 24 -14 41 -31 17 -17 34 -26 37 -21 4 6 26 7 61 1 30 -5 70 -10 88
-11 35 -1 45 -18 11 -18 -31 0 -48 -22 -42 -54 5 -26 4 -28 -18 -22 -13 3 -18
3 -11 0 6 -3 12 -13 12 -21 0 -12 3 -13 14 -4 10 8 16 9 21 2 4 -7 540 -11
1696 -11 l1689 0 0 606 0 605 -22 -7 c-13 -5 -36 -8 -52 -9 -36 0 -46 -22 -14
-29 13 -3 32 -7 43 -9 11 -3 -3 -5 -31 -6 -27 0 -79 -12 -113 -26 -45 -17 -68
-22 -81 -15 -11 6 -41 6 -76 1 -55 -8 -56 -9 -16 -10 30 -1 42 -5 42 -16 0
-10 11 -15 35 -15 19 0 35 -4 35 -9 0 -13 -64 -20 -72 -8 -9 14 -79 12 -123
-4 -27 -10 -37 -10 -50 1 -13 11 -18 10 -34 -4 -12 -11 -21 -13 -25 -7 -10 15
-157 11 -183 -5 -19 -12 -23 -12 -31 2 -6 11 -28 18 -61 22 -44 4 -51 2 -51
-13 0 -13 -4 -15 -17 -9 -10 4 -46 7 -80 6 -35 -2 -63 1 -63 6 0 12 -97 21
-240 22 -134 2 -128 3 -133 -17 -3 -13 -5 -14 -6 -3 -1 12 -16 15 -74 15 -39
-1 -83 3 -97 8 -14 5 -74 15 -135 23 -60 7 -145 18 -188 24 -43 6 -82 8 -87 5
-6 -4 -10 -1 -10 5 0 7 -6 10 -14 7 -7 -3 -19 0 -25 6 -8 8 -11 5 -12 -14 0
-15 -3 -18 -6 -9 -10 25 -61 69 -88 76 -27 7 -32 18 -14 30 19 11 49 87 49
124 0 19 -9 54 -20 78 -21 47 -53 65 -110 60 -34 -2 -35 -2 -32 31 1 20 -6 46
-19 67 -30 49 -68 56 -240 44 -214 -15 -492 -42 -571 -55 l-28 -4 2 117 c1 64
3 100 5 79 4 -33 7 -38 26 -35 12 2 22 10 22 18 0 8 10 16 23 18 15 2 22 -2
22 -12 0 -20 19 -21 34 -1 6 9 25 17 41 19 17 2 31 5 33 6 1 1 14 4 30 5 138
13 248 27 256 34 6 5 62 9 124 10 63 0 117 3 122 6 5 3 67 8 137 11 70 2 146
9 168 15 22 5 139 11 260 14 121 2 236 6 255 8 19 3 57 0 84 -5 31 -7 51 -7
55 0 8 12 155 -5 159 -18 2 -6 21 -10 43 -10 21 0 39 -4 39 -10 0 -5 19 -10
43 -10 23 0 49 -5 57 -10 10 -6 11 -10 3 -10 -7 0 -13 -4 -13 -9 0 -8 77 -18
198 -27 29 -2 62 -8 72 -14 10 -5 38 -10 62 -10 24 0 74 -9 113 -20 38 -10 72
-17 75 -15 9 5 261 -32 268 -40 4 -3 0 -10 -8 -16 -12 -7 -11 -9 5 -7 46 5
137 -15 142 -31 14 -44 28 -61 52 -62 17 -1 20 -3 9 -6 -39 -10 -9 -25 95 -49
l27 -6 0 3706 0 3706 -3600 0 -3600 0 0 -1814z m4393 1483 c386 -57 660 -299
771 -680 68 -237 60 -429 -28 -661 -54 -144 -197 -403 -289 -523 -41 -53 -55
-67 -32 -30 11 17 50 83 87 148 273 477 331 803 204 1142 -40 103 -136 271
-136 235 0 -10 -3 -10 -15 0 -13 10 -13 15 -3 21 9 6 5 11 -12 17 -14 6 -36
22 -50 37 -14 15 -47 43 -75 63 -27 20 -52 39 -55 43 -3 3 -22 12 -43 18 -20
7 -43 18 -50 24 -59 56 -305 117 -467 117 -153 0 -502 -94 -415 -112 10 -2
-14 -25 -66 -62 -144 -105 -237 -214 -269 -313 -7 -21 -16 -42 -20 -48 -10
-13 -46 -164 -60 -250 -6 -38 -16 -91 -21 -117 -6 -26 -10 -60 -9 -75 5 -69 3
-72 -36 -63 -48 11 -82 -3 -90 -37 -4 -16 2 -73 15 -138 16 -81 21 -147 21
-250 0 -153 10 -206 44 -240 17 -17 21 -30 17 -56 -3 -19 -5 -110 -6 -203 0
-127 3 -170 13 -174 6 -2 12 -17 12 -33 0 -26 3 -29 34 -29 20 0 36 -6 39 -14
3 -8 23 -17 44 -21 21 -3 58 -10 83 -16 69 -17 102 -18 133 -2 48 24 42 6 -8
-26 -62 -39 -106 -45 -195 -27 -237 50 -369 218 -449 576 -36 158 -44 279 -38
570 6 296 17 393 62 515 24 64 89 193 104 205 3 3 26 29 50 59 128 155 290
261 515 336 89 30 262 67 366 78 78 8 255 6 323 -4z m-2846 -1005 c-3 -3 -12
-4 -19 -1 -8 3 -5 6 6 6 11 1 17 -2 13 -5z m251 -11 c-10 -2 -28 -2 -40 0 -13
2 -5 4 17 4 22 1 32 -1 23 -4z m150 0 c-21 -2 -55 -2 -75 0 -21 2 -4 4 37 4
41 0 58 -2 38 -4z m457 -13 c61 -6 22 -7 -125 -4 -118 3 -216 7 -219 10 -7 7
246 3 344 -6z m168 -7 c-13 -2 -35 -2 -50 0 -16 2 -5 4 22 4 28 0 40 -2 28 -4z
m-1875 -21 c4 -14 -136 -12 -148 3 -7 9 9 11 67 10 42 -1 79 -7 81 -13z m192
2 c0 -8 -6 -14 -12 -14 -127 -5 -160 -4 -164 2 -11 18 9 23 90 24 66 1 86 -2
86 -12z m1405 1 c175 -3 320 -7 321 -8 1 -1 5 -12 8 -24 8 -25 14 -23 -87 -28
-54 -2 -79 6 -58 19 5 4 37 7 70 8 34 1 61 5 61 9 0 4 -52 7 -115 6 -63 -1
-115 -5 -115 -9 0 -5 -12 -9 -27 -9 -25 -1 -24 -2 7 -8 34 -6 34 -7 13 -19
-16 -9 -61 -11 -152 -9 -124 4 -168 -2 -142 -17 19 -12 12 -34 -11 -39 -36 -7
9 -8 292 -10 140 -2 261 -6 268 -11 35 -22 -16 -28 -224 -27 -219 2 -276 -4
-129 -14 43 -2 80 -7 83 -9 2 -3 2 -12 -1 -21 -5 -10 -20 -15 -52 -15 -66 0
-55 -16 13 -18 31 0 59 -1 62 -2 3 -2 8 -2 11 -2 4 1 5 -7 2 -18 -4 -17 -14
-18 -93 -15 l-89 3 9 -24 c8 -21 7 -24 -13 -24 l-22 -1 22 -12 c17 -9 19 -16
12 -29 -8 -14 -6 -18 6 -18 9 0 14 -4 11 -9 -3 -5 -15 -7 -25 -4 -10 3 -22 0
-25 -5 -7 -11 56 -14 257 -13 101 0 107 -1 107 -20 0 -11 -4 -18 -9 -14 -5 3
-12 1 -16 -5 -3 -5 1 -10 9 -10 9 0 16 -6 16 -14 0 -11 -21 -14 -96 -14 -53
-1 -99 -3 -102 -6 -5 -6 50 -8 208 -10 63 -1 75 -4 78 -18 3 -14 -3 -18 -25
-18 -52 -1 -358 1 -373 2 -32 3 -73 -2 -67 -8 5 -6 279 -16 372 -14 22 1 50 1
63 2 13 0 26 -3 29 -6 14 -13 -11 -20 -62 -18 -30 1 -55 -1 -55 -5 0 -12 -161
-7 -169 5 -4 6 -11 5 -19 -4 -11 -12 -8 -14 16 -14 36 0 45 -9 29 -28 -10 -13
-9 -15 6 -9 18 7 22 0 9 -20 -5 -8 -33 -13 -73 -13 -35 0 -71 -1 -79 -1 -38
-1 -141 9 -146 14 -13 13 9 28 32 23 14 -4 24 -2 24 4 0 5 -11 10 -24 10 -26
0 -48 21 -28 28 7 2 5 10 -5 22 -16 19 -39 18 -28 -1 4 -5 1 -9 -5 -9 -6 0
-10 8 -8 18 2 11 12 17 29 16 24 -1 24 1 15 31 -8 25 -13 29 -22 21 -10 -9 -9
-14 4 -24 14 -11 8 -13 -43 -10 -45 2 -60 7 -60 18 0 10 8 14 24 12 22 -2 23
0 19 53 -2 30 0 56 5 58 6 2 5 11 -2 24 -8 15 -8 24 -1 28 8 5 7 11 0 20 -7 8
-9 19 -5 25 12 20 -6 50 -31 50 -13 0 -24 5 -24 10 0 6 12 10 28 10 l27 1 -23
13 c-24 13 -18 25 18 39 10 4 8 6 -7 6 -33 1 -53 12 -53 27 0 11 10 13 35 11
19 -3 35 0 35 4 0 10 -3 10 -72 14 l-47 2 4 -86 c16 -342 24 -1395 12 -1408
-4 -3 -7 18 -7 48 -2 353 -21 1492 -26 1530 l-7 49 49 -4 c27 -3 193 -8 369
-11z m-1265 -5 c0 -6 -25 -10 -60 -10 -33 0 -60 4 -60 9 0 4 27 9 60 10 36 1
60 -3 60 -9z m832 -92 c-9 -9 -12 1 -11 43 l1 54 11 -43 c7 -31 7 -46 -1 -54z
m3951 75 c-13 -2 -33 -2 -45 0 -13 2 -3 4 22 4 25 0 35 -2 23 -4z m757 -7 c0
-11 -28 -15 -127 -21 -71 -3 -139 -8 -153 -10 -14 -2 -40 -4 -58 -4 -20 -1
-31 -5 -27 -11 4 -6 14 -9 23 -6 18 5 273 20 306 18 19 -1 32 -9 25 -16 -4 -4
-132 -15 -240 -20 -30 -1 -59 -5 -65 -8 -5 -3 -51 -9 -103 -12 -52 -4 -97 -9
-100 -12 -7 -7 187 3 215 11 13 4 11 2 -3 -6 -24 -13 -31 -29 -12 -29 8 0 7
-5 -2 -16 -10 -13 -10 -17 2 -25 8 -5 18 -9 22 -9 5 0 5 -4 2 -10 -3 -5 -1
-10 4 -10 6 0 11 5 11 10 0 6 7 10 16 10 8 0 12 -5 9 -10 -4 -7 2 -9 18 -4 14
3 34 1 44 -6 16 -10 15 -11 -7 -6 -14 3 -32 1 -40 -5 -10 -7 18 -9 92 -5 106
4 124 1 110 -20 -7 -10 -69 -17 -282 -30 -111 -6 -150 -13 -150 -24 0 -14 28
-12 32 1 6 17 48 1 48 -18 0 -9 -8 -22 -17 -29 -17 -12 -16 -13 6 -14 22 0 23
-3 18 -40 -4 -31 -2 -40 10 -40 10 0 14 -10 13 -32 -5 -92 0 -123 22 -137 16
-10 23 -10 26 -2 5 14 32 15 32 1 0 -5 -7 -10 -15 -10 -8 0 -15 -7 -15 -15 0
-16 -15 -21 -23 -7 -2 4 -2 1 0 -7 2 -7 -4 -19 -12 -25 -12 -9 5 -11 77 -11
76 0 93 -3 93 -15 0 -10 -11 -15 -30 -16 -16 -1 -49 -2 -72 -3 -24 0 -43 -5
-43 -10 0 -5 26 -7 58 -5 50 3 55 2 39 -10 -11 -9 -31 -12 -50 -9 -40 6 -82
-16 -82 -42 0 -11 5 -20 12 -20 7 0 18 -6 25 -14 11 -11 6 -12 -29 -9 -51 4
-57 -5 -32 -57 18 -36 18 -40 2 -57 -22 -25 -31 -23 -36 10 -3 19 -4 14 -6
-15 -1 -30 3 -43 13 -43 15 0 26 -80 26 -191 0 -44 4 -69 13 -73 10 -5 10 -7
0 -12 -15 -7 -18 -44 -4 -44 12 0 9 -18 -8 -49 -11 -19 -11 -25 0 -32 11 -7
10 -9 -3 -9 -9 0 -20 5 -23 10 -3 6 -15 10 -26 10 -18 0 -19 -2 -5 -15 8 -8
19 -15 24 -15 15 0 112 -111 112 -128 0 -9 -9 -3 -22 14 -13 16 -32 39 -43 52
-33 38 -156 110 -244 142 -146 54 -232 63 -576 64 -309 1 -310 1 -335 24 -14
13 -37 31 -52 40 l-28 16 0 266 0 266 68 135 c105 208 128 265 163 390 l21 77
91 10 c281 33 326 36 354 22 16 -7 53 -15 83 -17 44 -2 50 -1 31 7 -30 13 -24
20 11 13 15 -3 25 -9 22 -15 -3 -5 5 -7 18 -4 71 15 82 16 73 9 -5 -4 -10 -17
-10 -28 0 -16 -6 -20 -29 -18 -17 1 -25 -1 -20 -7 8 -8 235 4 312 16 33 5 33
6 16 25 -16 18 -16 19 7 20 13 0 35 2 49 4 14 2 81 7 150 11 69 3 127 8 129
10 12 11 61 3 61 -10z m-6002 -13 c2 -8 -5 -13 -17 -13 -12 0 -21 6 -21 16 0
18 31 15 38 -3z m297 2 c44 -2 103 -5 130 -6 28 -1 42 -3 33 -6 -10 -2 -18 -9
-18 -14 0 -9 58 -12 152 -9 35 1 49 -3 57 -17 9 -15 10 -15 11 -2 0 14 12 15
78 13 42 -2 103 -4 134 -5 35 0 61 -6 68 -14 16 -20 3 -36 -23 -30 -35 8 -613
26 -582 18 60 -15 39 -40 -29 -35 -52 4 -64 28 -18 35 15 2 -7 5 -48 6 -136 5
-149 6 -161 18 -14 14 -4 19 46 26 17 2 -3 5 -42 6 -67 1 -84 7 -66 24 3 4 50
5 102 2 53 -3 132 -7 176 -10z m4842 9 c-3 -3 -12 -4 -19 -1 -8 3 -5 6 6 6 11
1 17 -2 13 -5z m-2396 -21 c6 -6 1 -19 -13 -34 -23 -24 -23 -27 -10 -94 20
-102 26 -279 12 -357 -10 -58 -9 -70 6 -100 15 -28 15 -31 1 -20 -25 21 -36
100 -30 217 5 108 2 136 -38 322 -9 40 -9 56 0 67 13 15 56 15 72 -1z m2753
-15 c-5 -8 -2 -9 10 -5 10 4 15 3 11 -3 -10 -15 -35 -12 -35 5 0 8 5 15 11 15
5 0 7 -5 3 -12z m533 -110 c-2 -24 -4 -5 -4 42 0 47 2 66 4 43 2 -24 2 -62 0
-85z m-642 92 c3 -5 -1 -10 -10 -10 -9 0 -13 5 -10 10 3 6 8 10 10 10 2 0 7
-4 10 -10z m-3833 -15 c0 -5 -5 -11 -11 -13 -6 -2 -11 4 -11 13 0 9 5 15 11
13 6 -2 11 -8 11 -13z m116 -7 c3 -14 -4 -16 -40 -13 -24 2 -46 4 -50 4 -5 1
-8 8 -8 16 0 23 94 16 98 -7z m96 16 c9 -3 16 -12 16 -20 0 -11 -13 -14 -50
-13 -41 2 -50 5 -50 21 0 14 8 18 34 18 19 0 41 -3 50 -6z m-1554 -35 c0 -6
-9 -13 -20 -16 -28 -8 -25 -17 11 -30 26 -10 30 -15 20 -27 -19 -23 -57 -25
-70 -3 -7 10 -15 16 -19 12 -3 -3 0 -10 8 -15 10 -7 11 -10 3 -10 -7 0 -13 -4
-13 -10 0 -5 7 -10 15 -10 8 0 15 -7 15 -16 0 -12 -10 -15 -52 -13 -71 4 -88
9 -88 26 0 10 7 14 19 10 10 -2 26 0 35 5 10 6 16 5 16 -2 0 -5 7 -10 15 -10
8 0 15 7 15 15 0 8 -3 14 -7 14 -5 -1 -23 -1 -40 0 -29 1 -33 4 -32 29 2 23 2
24 6 5 2 -13 11 -23 20 -23 13 0 13 3 3 15 -11 13 -8 15 13 15 14 0 29 5 33
12 5 7 2 9 -8 5 -15 -5 -38 9 -38 25 0 4 32 8 70 8 44 0 70 -4 70 -11z m30 2
c0 -6 -4 -13 -10 -16 -5 -3 -10 1 -10 9 0 9 5 16 10 16 6 0 10 -4 10 -9z
m1073 -1079 l5 -412 -26 1 c-35 2 -760 -35 -880 -45 -28 -2 -48 1 -57 11 -13
13 -15 12 -15 -1 0 -12 -11 -16 -42 -16 -24 -1 -95 -3 -158 -5 l-115 -4 85 13
c47 7 89 11 93 9 5 -3 15 3 23 13 9 11 13 14 10 8 -4 -7 6 -14 24 -16 17 -3
30 -1 30 4 0 5 8 5 17 -1 12 -6 21 -5 31 7 10 13 15 14 18 5 3 -8 22 -13 42
-12 32 1 34 2 12 8 -24 7 -24 7 -5 19 l20 11 -20 2 c-11 1 -27 1 -37 0 -9 -1
-19 3 -23 9 -4 7 -11 5 -21 -5 -9 -8 -13 -19 -10 -24 3 -5 -3 -7 -15 -4 -16 5
-18 8 -7 15 9 7 7 8 -7 3 -35 -12 -78 -17 -165 -18 -84 -2 -85 -2 -87 23 -1
14 0 19 3 13 4 -9 30 -13 79 -13 61 0 76 3 84 18 8 15 24 18 98 20 48 1 113 3
144 6 66 5 81 -2 75 -35 -7 -36 -7 -36 -16 -14 -8 19 -9 19 -9 -4 l-1 -23 143
7 c78 4 145 12 148 17 4 6 25 9 48 6 22 -2 41 0 41 4 0 5 -21 8 -46 8 -38 0
-45 3 -40 16 3 9 6 24 6 35 0 16 7 19 40 19 29 0 40 4 40 15 0 8 5 15 10 15 6
0 10 18 10 40 0 22 -4 40 -10 40 -5 0 -10 -18 -10 -40 l0 -40 -80 0 -80 0 0
40 c0 28 -4 40 -14 40 -9 0 -12 7 -9 20 3 11 0 20 -6 20 -6 0 -11 -9 -11 -20
0 -19 -14 -25 -47 -21 -7 1 -13 -3 -13 -9 0 -6 -13 -16 -30 -21 -16 -6 -27
-15 -24 -20 3 -5 0 -17 -6 -26 -9 -15 -10 -14 -5 7 6 24 5 24 -9 6 -13 -16
-16 -17 -16 -4 0 9 7 19 16 22 9 3 14 12 11 19 -3 8 3 14 16 14 23 2 67 45 66
65 0 10 -2 10 -6 1 -6 -16 -33 -17 -33 -2 0 7 -15 10 -39 7 -22 -2 -37 0 -35
4 3 5 22 8 43 8 37 0 39 1 45 41 5 29 2 44 -8 55 -18 17 -32 19 -19 2 15 -19
4 -88 -13 -88 -16 0 -19 16 -4 25 16 10 12 47 -7 60 -11 8 -39 11 -80 8 -41
-3 -63 -1 -63 6 0 12 17 15 65 12 44 -3 96 9 90 20 -11 18 -235 9 -235 -10 0
-3 14 -7 31 -8 32 -2 46 -9 38 -17 -5 -6 -79 -10 -94 -6 -26 6 -95 -1 -95 -10
0 -7 56 -10 162 -8 148 3 163 1 166 -14 3 -16 -8 -18 -132 -18 -84 0 -136 -4
-136 -10 0 -5 3 -9 8 -9 31 5 62 -3 62 -16 0 -16 -11 -18 -72 -15 -22 1 -38
-3 -38 -9 0 -6 -5 -11 -11 -11 -5 0 -8 4 -5 9 3 5 -8 11 -25 15 -19 3 -28 10
-23 17 3 6 17 9 30 6 16 -3 24 0 24 9 0 10 -13 14 -45 12 -46 -1 -89 -18 -47
-18 12 0 22 -5 22 -10 0 -6 -14 -9 -30 -8 -20 2 -29 7 -26 15 5 13 1 15 -44
17 -14 1 -26 8 -28 18 -3 15 7 17 75 16 109 0 112 0 93 12 -8 5 -34 10 -57 10
-24 0 -43 5 -43 10 0 12 26 14 137 11 48 -1 84 2 88 9 8 13 3 13 -122 11 -108
-3 -125 1 -117 23 5 13 153 20 382 18 13 0 20 3 17 7 -4 3 -68 6 -143 7 -200
0 -273 5 -269 18 2 6 25 12 50 14 59 4 62 17 5 17 -36 0 -44 4 -46 21 -2 16 3
20 23 20 14 0 25 -4 25 -9 0 -4 4 -6 9 -2 5 3 12 1 16 -5 4 -6 11 -8 16 -5 5
4 9 -4 9 -17 0 -18 6 -23 25 -23 14 0 25 3 25 8 0 4 -9 7 -21 7 -12 0 -19 5
-16 13 2 8 30 12 92 12 62 0 90 -4 93 -12 2 -9 -7 -13 -27 -13 -17 0 -31 -3
-31 -8 0 -4 25 -7 55 -7 30 0 55 3 55 8 0 4 -10 7 -21 7 -16 0 -20 5 -16 20 3
13 0 20 -9 20 -8 0 -14 6 -14 14 0 8 -6 16 -12 19 -19 6 -49 -4 -43 -14 3 -4
12 -6 20 -2 8 3 15 1 15 -5 0 -6 -27 -10 -65 -10 -50 0 -65 4 -65 15 0 8 -4
12 -9 9 -4 -3 -16 3 -25 13 -23 25 -9 33 52 31 78 -3 94 -1 86 11 -3 6 -15 9
-25 6 -13 -4 -19 0 -19 12 0 14 14 16 116 16 64 0 121 3 127 7 13 9 13 9 -63
13 -30 2 -58 4 -62 4 -13 1 -9 31 5 32 6 0 51 0 100 -1 70 -1 87 2 87 13 0 11
-8 13 -32 8 -18 -3 -49 -5 -68 -5 -19 1 -50 2 -67 3 -23 1 -33 6 -33 17 0 10
5 14 16 10 8 -3 12 -2 9 4 -3 6 -47 10 -97 10 -102 0 -115 -11 -17 -13 71 -2
92 -22 32 -30 -21 -3 -90 -4 -153 -2 -154 4 -145 2 -131 19 9 10 33 14 91 12
44 -1 80 2 80 6 0 4 -12 8 -26 8 -19 0 -25 4 -22 18 3 15 16 17 98 17 52 1 98
-3 101 -8 4 -6 13 -6 20 -1 8 5 56 9 106 9 70 0 94 -3 98 -13 4 -11 8 -12 19
-3 9 8 32 10 65 5 35 -4 51 -3 51 5 0 6 -4 11 -10 11 -16 0 -12 30 5 36 29 12
14 21 -36 23 -29 1 -56 4 -60 7 -5 3 -9 -5 -10 -18 0 -17 -2 -19 -7 -8 -5 12
-27 17 -92 19 -50 2 -88 8 -92 14 -6 9 -8 9 -8 0 0 -7 -7 -13 -16 -13 -10 0
-14 -6 -10 -15 5 -13 0 -17 -20 -14 -4 0 -11 -5 -16 -13 -7 -9 -8 -4 -4 15 l7
28 -111 -2 c-61 -1 -113 1 -116 4 -3 3 -1 14 5 24 7 14 22 20 51 21 23 1 46 4
51 8 5 3 9 0 9 -5 0 -14 37 -14 45 -1 3 6 11 10 16 10 6 0 8 -4 5 -8 -5 -9
163 -13 359 -10 61 1 65 -1 65 -22 0 -11 5 -20 11 -20 6 0 9 -7 5 -15 -3 -8 4
-21 16 -29 11 -8 17 -19 13 -25 -4 -7 7 -11 30 -11 30 0 38 4 43 23 l6 22 5
-23 6 -24 28 22 c22 18 30 20 42 10 13 -11 15 -8 15 19 0 33 -14 42 -24 15 -4
-9 -9 -14 -13 -10 -3 3 2 14 11 25 11 12 14 21 7 26 -19 11 -12 27 10 22 15
-4 19 -3 11 5 -5 5 -40 10 -77 9 -52 -1 -71 -5 -81 -18 -16 -21 -18 -47 -4
-38 6 3 10 -2 10 -11 0 -16 -1 -16 -19 0 -22 20 -24 59 -4 52 7 -3 13 -1 13 4
0 11 -7 11 -143 13 -81 1 -88 3 -85 21 3 18 11 20 96 19 51 0 95 4 98 8 3 5
-7 9 -23 10 l-28 1 29 8 c33 10 46 6 46 -16 0 -9 10 -14 28 -14 122 3 172 -1
172 -15 0 -8 5 -15 10 -15 6 0 10 7 10 16 0 13 3 14 15 4 8 -7 13 -15 11 -19
-3 -4 11 -5 31 -3 24 3 31 7 22 13 -11 7 -9 9 6 9 18 0 20 7 21 92 1 59 5 93
13 96 6 2 11 10 11 18 0 8 9 14 19 14 18 0 19 -5 14 -55 -4 -38 -2 -55 6 -55
6 0 12 -19 13 -42 1 -24 4 7 7 67 l6 110 32 14 c18 8 34 21 36 30 3 9 5 1 6
-17 1 -20 -3 -31 -9 -27 -6 4 -11 -6 -11 -22 -2 -40 2 -58 12 -61 5 -2 9 -12
9 -22 0 -10 4 -21 8 -24 13 -8 11 197 -1 212 -8 10 -7 16 2 21 9 6 11 31 8 89
-3 45 -2 84 2 87 6 7 15 -395 24 -1083z m-1295 1049 c7 -1 12 -14 12 -33 0
-19 -4 -28 -8 -21 -4 7 -27 15 -50 19 -23 4 -45 11 -48 15 -11 18 8 28 44 24
20 -2 43 -4 50 -4z m1892 -45 c0 -2 -11 -6 -25 -8 -14 -3 -25 -1 -25 3 0 5 11
9 25 9 14 0 25 -2 25 -4z m-1913 -38 c-3 -8 -6 -5 -6 6 -1 11 2 17 5 13 3 -3
4 -12 1 -19z m373 -1 c58 3 90 -7 90 -27 0 -5 -38 -7 -86 -6 -47 1 -87 -1 -90
-6 -3 -4 10 -8 28 -9 18 0 65 -2 103 -4 39 -2 141 -5 227 -6 119 -1 158 -5
162 -15 3 -7 1 -16 -4 -19 -5 -3 -6 -13 -3 -23 6 -16 6 -16 -10 0 -22 22 -169
26 -161 4 3 -8 1 -17 -5 -21 -6 -3 -9 0 -5 8 3 8 1 18 -4 21 -16 10 -232 14
-232 5 0 -5 8 -9 18 -10 10 0 12 -3 5 -6 -8 -3 -11 -14 -7 -27 5 -22 3 -22
-77 -22 -53 0 -84 -4 -86 -11 -3 -7 6 -10 24 -8 42 4 57 -4 36 -21 -17 -12
-17 -13 5 -14 33 0 27 -26 -10 -38 -33 -10 -33 -10 15 -11 41 -1 48 -4 45 -18
-3 -14 -14 -18 -53 -19 -82 -1 -118 -27 -45 -32 22 -1 40 1 40 6 0 5 7 9 15 9
8 0 15 -4 15 -8 0 -11 33 1 42 15 5 7 8 4 8 -6 0 -10 3 -17 8 -15 8 2 12 -6
12 -28 0 -13 -20 -15 -137 -13 -130 3 -138 4 -138 23 0 15 7 20 30 21 58 3 61
4 36 18 -14 8 -31 12 -38 9 -16 -6 -45 16 -37 28 3 5 35 9 71 9 74 0 78 12 5
17 -67 5 -94 12 -87 23 3 6 17 10 31 10 15 0 23 4 19 10 -4 6 -14 8 -23 6 -10
-3 -30 1 -46 9 -15 8 -32 12 -37 9 -5 -3 -8 0 -7 8 2 8 -7 13 -27 13 -19 0
-31 6 -33 16 -3 14 8 17 69 18 76 1 109 10 46 12 -53 2 -57 3 -57 14 0 6 18
10 40 10 22 0 40 3 40 8 0 4 -18 7 -39 7 -22 0 -42 4 -46 10 -3 5 -12 7 -20 3
-9 -3 -15 1 -15 11 0 13 14 15 105 11 96 -4 130 3 89 19 -30 11 -3 25 46 23
36 -1 50 2 50 11 0 11 3 11 14 0 10 -10 33 -13 76 -11z m5503 16 c-7 -2 -21
-2 -30 0 -10 3 -4 5 12 5 17 0 24 -2 18 -5z m-5278 -44 c3 -3 -18 -7 -45 -8
-28 0 -50 4 -50 10 0 11 88 10 95 -2z m70 -10 c-18 -5 -33 -5 -39 1 -7 7 4 10
30 9 39 -1 39 -1 9 -10z m105 7 c0 -11 -19 -15 -25 -6 -3 5 1 10 9 10 9 0 16
-2 16 -4z m1004 -42 c27 -10 18 -22 -16 -19 -18 1 -34 7 -36 14 -4 12 26 15
52 5z m3874 -3 c8 -4 14 -12 14 -17 -1 -5 6 -8 14 -6 8 2 14 -2 14 -8 0 -5 -4
-10 -10 -10 -5 0 -10 -4 -10 -10 0 -5 7 -10 15 -10 11 0 15 -12 15 -50 0 -38
-4 -50 -15 -50 -8 0 -15 9 -15 20 0 11 -5 20 -11 20 -8 0 -10 14 -6 40 4 31 2
40 -10 40 -9 0 -13 6 -10 14 3 7 0 19 -6 25 -13 13 2 15 21 2z m-3948 -31 c0
-5 -7 -10 -16 -10 -8 0 -12 5 -9 10 3 6 10 10 16 10 5 0 9 -4 9 -10z m4317
-22 c-3 -7 -5 -2 -5 12 0 14 2 19 5 13 2 -7 2 -19 0 -25z m-5517 12 c0 -5 -5
-10 -11 -10 -5 0 -7 5 -4 10 3 6 8 10 11 10 2 0 4 -4 4 -10z m1290 0 c0 -5
-10 -10 -22 -10 -19 0 -20 2 -8 10 19 13 30 13 30 0z m-1195 -19 c-3 -6 -11
-11 -17 -11 -6 0 -6 6 2 15 14 17 26 13 15 -4z m165 15 c0 -3 -4 -8 -10 -11
-5 -3 -10 -1 -10 4 0 6 5 11 10 11 6 0 10 -2 10 -4z m-70 -10 c0 -3 -4 -8 -10
-11 -5 -3 -10 -1 -10 4 0 6 5 11 10 11 6 0 10 -2 10 -4z m1063 -32 c-7 -20
-10 -18 -15 11 -4 20 -2 23 8 14 7 -6 10 -17 7 -25z m-40 -7 c-3 -5 -10 -4
-15 1 -6 6 -7 16 -3 22 6 9 9 9 16 -1 4 -7 5 -17 2 -22z m123 -5 c-4 -3 -14 2
-24 13 -16 17 -16 18 1 12 10 -4 17 -1 18 6 1 7 3 4 6 -6 3 -10 2 -21 -1 -25z
m-1176 12 c0 -2 -7 -4 -15 -4 -8 0 -15 4 -15 10 0 5 7 7 15 4 8 -4 15 -8 15
-10z m1270 -4 c0 -5 -2 -10 -4 -10 -3 0 -8 5 -11 10 -3 6 -1 10 4 10 6 0 11
-4 11 -10z m40 0 c0 -5 -4 -10 -10 -10 -5 0 -10 5 -10 10 0 6 5 10 10 10 6 0
10 -4 10 -10z m-183 -6 c-3 -3 -12 -4 -19 -1 -8 3 -5 6 6 6 11 1 17 -2 13 -5z
m213 -4 c0 -5 -2 -10 -4 -10 -3 0 -8 5 -11 10 -3 6 -1 10 4 10 6 0 11 -4 11
-10z m-1641 -20 c-15 -10 -41 -1 -34 10 3 5 14 6 26 3 15 -4 17 -8 8 -13z
m366 10 c-27 -12 -43 -12 -25 0 8 5 22 9 30 9 10 0 8 -3 -5 -9z m5292 -22 c-3
-7 -5 -2 -5 12 0 14 2 19 5 13 2 -7 2 -19 0 -25z m-5327 -10 c0 -6 6 -5 15 2
8 6 18 9 22 7 5 -3 63 -7 128 -8 132 -2 145 -5 145 -25 0 -16 1 -16 -115 -14
-80 1 -93 -1 -109 -19 -10 -11 -23 -18 -27 -15 -13 8 -11 22 4 20 6 0 14 3 17
9 3 5 -17 9 -48 10 -36 0 -52 -4 -52 -13 0 -7 5 -10 10 -7 6 3 10 1 10 -4 0
-6 -5 -11 -11 -11 -5 0 -7 -4 -4 -10 3 -5 1 -10 -4 -10 -6 0 -11 11 -11 24 0
15 -7 26 -20 29 -11 3 -20 1 -20 -4 0 -5 4 -9 9 -9 5 0 11 -9 14 -20 5 -18 1
-19 -64 -16 -47 3 -69 0 -70 -7 0 -7 -6 -1 -12 12 -9 19 -9 25 1 29 26 8 10
18 -33 18 -25 0 -45 -4 -45 -8 0 -4 14 -8 30 -8 23 0 30 -4 30 -20 0 -17 -5
-20 -36 -16 -24 3 -34 1 -31 -7 3 -10 23 -14 96 -18 13 -1 27 5 32 12 6 10 9
11 9 2 0 -8 14 -13 35 -13 37 0 52 -17 41 -46 -5 -12 -10 -13 -19 -6 -16 14
-57 11 -57 -3 0 -5 -5 -3 -10 5 -8 13 -11 13 -27 -2 -16 -17 -16 -18 10 -18
20 0 27 -5 27 -20 0 -16 -7 -20 -36 -20 -19 0 -44 5 -55 10 -10 6 -19 7 -19 2
0 -5 -6 -9 -14 -9 -8 0 -11 8 -8 19 3 12 10 17 22 13 10 -3 25 2 34 10 21 21
20 27 -1 24 -38 -3 -49 2 -61 31 -7 16 -22 32 -33 35 -23 8 -25 23 -4 31 8 4
15 10 15 16 0 5 -4 6 -10 3 -11 -7 -50 12 -50 25 0 14 35 17 203 17 98 0 157
-3 157 -9z m1360 8 c0 -2 -7 -7 -16 -10 -8 -3 -12 -2 -9 4 6 10 25 14 25 6z
m47 -58 c-2 -13 -4 -5 -4 17 -1 22 1 32 4 23 2 -10 2 -28 0 -40z m-1070 10
c-3 -8 -6 -5 -6 6 -1 11 2 17 5 13 3 -3 4 -12 1 -19z m-314 -25 c-5 -12 -3
-14 7 -8 9 5 11 4 6 -4 -4 -6 -12 -9 -17 -6 -12 8 -12 35 1 35 5 0 6 -7 3 -17z
m110 5 c3 -10 7 -10 18 -1 10 8 20 9 29 3 13 -8 12 -10 -2 -10 -10 0 -18 -4
-18 -10 0 -5 -5 -10 -11 -10 -11 0 -39 24 -39 34 0 11 18 6 23 -6z m117 2 c0
-5 -4 -10 -10 -10 -5 0 -10 5 -10 10 0 6 5 10 10 10 6 0 10 -4 10 -10z m68 -1
c-2 -6 -7 -10 -11 -10 -4 1 -17 1 -29 2 -22 1 -22 1 2 9 36 11 42 11 38 -1z
m41 -39 c-4 -3 -9 -18 -11 -35 -3 -27 -7 -29 -42 -31 -30 -1 -40 3 -44 18 -2
10 -9 18 -16 19 -24 1 31 18 63 18 30 1 33 3 27 26 -6 25 -6 25 12 8 10 -10
15 -20 11 -23z m-221 -10 c10 -13 14 -13 27 4 9 13 15 15 15 7 0 -8 7 -19 16
-26 15 -11 15 -12 0 -12 -9 0 -16 4 -16 9 0 4 -4 8 -10 8 -5 0 -10 -6 -10 -13
0 -7 -9 -18 -20 -25 -19 -11 -20 -10 -15 11 4 16 2 26 -8 30 -8 3 -17 15 -20
27 -5 19 -3 20 11 8 9 -7 23 -20 30 -28z m5189 -212 c-1 -46 -3 -9 -3 82 0 91
2 128 3 83 2 -46 2 -120 0 -165z m-5067 222 c0 -5 -4 -10 -9 -10 -6 0 -13 5
-16 10 -3 6 1 10 9 10 9 0 16 -4 16 -10z m-290 -10 c0 -5 -2 -10 -4 -10 -3 0
-8 5 -11 10 -3 6 -1 10 4 10 6 0 11 -4 11 -10z m35 0 c3 -5 1 -10 -4 -10 -6 0
-11 5 -11 10 0 6 2 10 4 10 3 0 8 -4 11 -10z m1402 -122 c-2 -24 -4 -7 -4 37
0 44 2 63 4 43 2 -21 2 -57 0 -80z m-1167 73 c0 -4 -11 -6 -25 -3 -14 2 -25 6
-25 8 0 2 11 4 25 4 14 0 25 -4 25 -9z m580 -1 c0 -5 -5 -10 -11 -10 -5 0 -7
5 -4 10 3 6 8 10 11 10 2 0 4 -4 4 -10z m-1111 -24 c25 -16 -7 -30 -64 -28
-30 0 -55 -3 -55 -9 0 -5 -5 -9 -11 -9 -5 0 -7 5 -4 10 4 6 -22 10 -69 10 -60
0 -76 3 -76 14 0 10 13 16 38 18 69 6 227 2 241 -6z m1261 -67 c0 -4 -6 -9
-14 -12 -9 -4 -12 -14 -9 -26 5 -20 1 -21 -65 -21 -75 0 -93 10 -67 37 13 13
14 18 3 24 -7 5 22 8 70 7 45 -1 82 -5 82 -9z m50 -2 c-20 -17 -40 -53 -40
-74 0 -14 -2 -15 -9 -5 -5 8 -4 31 2 53 8 33 13 39 36 39 22 -1 24 -3 11 -13z
m85 3 c3 -5 -3 -10 -15 -10 -12 0 -18 -4 -15 -10 3 -5 1 -10 -4 -10 -6 0 -11
9 -11 20 0 21 33 29 45 10z m-1710 -21 c5 -6 2 -9 -9 -9 -15 0 -16 -3 -6 -15
15 -18 5 -36 -16 -28 -10 3 -14 13 -11 25 3 11 0 22 -9 25 -8 3 -14 9 -14 14
0 11 50 1 65 -12z m731 -28 c-9 -10 -16 -23 -16 -31 0 -10 -3 -10 -15 0 -20
17 -19 28 3 26 12 -1 18 8 20 29 3 25 5 27 14 11 7 -13 6 -22 -6 -35z m-786
-22 c0 -21 -1 -21 58 -24 48 -2 63 -12 42 -26 -13 -8 -97 -6 -104 3 -2 1 -6
20 -10 41 -5 27 -4 37 3 32 6 -3 11 -15 11 -26z m79 10 c-16 -10 -23 -4 -14
10 3 6 11 8 17 5 6 -4 5 -9 -3 -15z m126 11 c-3 -5 -11 -10 -16 -10 -6 0 -7 5
-4 10 3 6 11 10 16 10 6 0 7 -4 4 -10z m59 -5 c-4 -8 -8 -15 -10 -15 -2 0 -4
7 -4 15 0 8 4 15 10 15 5 0 7 -7 4 -15z m113 -17 c-3 -7 -5 -2 -5 12 0 14 2
19 5 13 2 -7 2 -19 0 -25z m140 15 c14 -17 14 -17 9 0 -3 9 -1 17 5 17 17 0 5
-35 -14 -38 -11 -2 -17 3 -18 15 -1 16 -2 17 -6 1 -5 -21 -19 -23 -29 -6 -4 7
-3 8 4 4 7 -4 12 -1 12 8 0 21 19 20 37 -1z m110 -5 c-3 -8 -6 -5 -6 6 -1 11
2 17 5 13 3 -3 4 -12 1 -19z m43 18 c0 -3 -4 -8 -10 -11 -5 -3 -10 -1 -10 4 0
6 5 11 10 11 6 0 10 -2 10 -4z m189 -10 c9 -10 8 -16 -4 -26 -13 -11 -15 -8
-15 14 0 30 3 32 19 12z m-624 -24 c-8 -8 -25 10 -19 20 4 6 9 5 15 -3 4 -7 6
-15 4 -17z m565 8 c0 -5 -5 -10 -11 -10 -5 0 -7 5 -4 10 3 6 8 10 11 10 2 0 4
-4 4 -10z m897 4 c-3 -3 -12 -4 -19 -1 -8 3 -5 6 6 6 11 1 17 -2 13 -5z m-80
-18 c12 -12 -20 -26 -49 -22 -16 2 -30 0 -34 -5 -5 -8 40 -14 74 -10 6 1 12
-3 12 -9 0 -5 -11 -10 -25 -10 -14 0 -25 -3 -25 -7 0 -5 15 -8 32 -7 28 1 33
4 30 24 -3 18 -1 20 10 10 8 -8 12 -27 10 -46 l-4 -32 40 5 c31 4 44 1 60 -15
19 -19 19 -19 -65 -20 -47 -1 -88 -3 -91 -6 -3 -4 11 -6 31 -6 45 0 83 -14 90
-34 8 -21 3 -20 -19 1 -11 11 -19 14 -21 7 -2 -7 -25 -10 -58 -8 -30 2 -55 0
-55 -5 0 -4 18 -8 41 -8 40 -1 58 -8 46 -19 -3 -4 -56 -7 -116 -9 -85 -2 -111
1 -115 11 -4 10 4 14 30 14 22 0 33 4 29 10 -4 6 -15 8 -24 5 -24 -7 -37 12
-37 52 1 32 0 33 -39 30 -31 -2 -40 2 -43 16 -3 16 2 18 35 16 21 -1 46 2 55
6 9 4 22 4 28 0 14 -9 13 8 -2 23 -9 9 -8 12 5 12 19 0 23 16 5 22 -6 2 -9 9
-5 15 7 11 152 11 164 -1z m178 -96 c-3 -5 -14 -10 -23 -10 -15 0 -15 2 -2 10
20 13 33 13 25 0z m-1785 -182 c0 -100 -2 -179 -4 -177 -8 9 -13 359 -5 359 5
0 9 -82 9 -182z m318 155 c-2 -10 -13 -18 -24 -19 -12 -1 -27 -5 -34 -9 -7 -5
-11 -4 -8 1 4 5 -21 9 -55 9 -51 0 -62 3 -65 18 -3 15 7 17 93 17 86 0 96 -2
93 -17z m-198 -38 c-7 -8 -17 -15 -23 -15 -6 0 -2 7 9 15 25 19 30 19 14 0z
m98 -14 c-2 -12 -15 -16 -45 -16 -23 0 -45 -3 -49 -7 -4 -5 -12 -8 -17 -8 -6
0 2 10 16 23 32 27 100 33 95 8z m3858 -79 c14 -33 13 -33 -14 -30 -30 3 -56
45 -46 72 9 24 42 1 60 -42z m-2397 41 c-1 -5 -1 -17 0 -28 1 -16 3 -17 10 -5
6 8 7 18 4 24 -3 5 -1 6 5 2 6 -3 9 -19 8 -34 -3 -27 -3 -27 -85 -27 -58 0
-81 4 -81 13 0 12 24 15 94 12 37 -2 38 -1 32 24 -4 15 -2 26 4 26 5 0 9 -3 9
-7z m-1592 -18 c0 -16 -31 -30 -47 -20 -21 13 -10 35 18 35 19 0 29 -5 29 -15z
m43 -35 c0 -5 -7 -7 -15 -4 -8 4 -12 10 -9 15 6 11 24 2 24 -11z m1398 3 c6
-19 -20 -25 -73 -16 -73 12 -69 31 6 30 40 -1 64 -7 67 -14z m1698 -18 c-3 -8
-1 -14 3 -12 5 1 10 -2 11 -8 4 -21 23 -35 49 -35 l26 0 -30 -14 c-16 -7 -59
-27 -95 -43 l-65 -30 -3 44 c-4 51 13 77 63 99 39 17 48 17 41 -1z m-1159 -17
c-3 -8 -6 -5 -6 6 -1 11 2 17 5 13 3 -3 4 -12 1 -19z m3570 -15 c-3 -10 -5 -4
-5 12 0 17 2 24 5 18 2 -7 2 -21 0 -30z m-3887 8 c8 -1 42 -1 75 -2 142 -1
178 -4 182 -16 5 -13 -58 -18 -179 -15 l-48 1 18 -24 c9 -14 23 -25 30 -25 6
0 12 -8 12 -17 0 -14 -2 -15 -9 -4 -7 10 -32 14 -97 13 -121 -1 -118 -1 -111
-8 3 -3 47 -7 98 -7 64 -2 94 -6 97 -14 3 -10 -23 -13 -110 -13 -62 0 -107 -4
-100 -8 7 -5 57 -7 112 -6 82 2 100 0 100 -12 0 -11 -16 -14 -72 -15 -40 0
-131 -1 -203 -2 -110 -2 -130 0 -130 13 0 9 7 14 18 12 9 -2 17 2 17 7 0 5
-10 11 -22 13 -42 6 -23 23 32 29 l55 6 -50 3 c-27 1 -53 2 -56 2 -3 -1 -3 12
-1 29 3 18 10 29 21 30 11 0 8 3 -7 10 -13 5 -20 14 -17 20 6 9 117 9 345 0z
m317 -108 c-2 -16 -4 -3 -4 27 0 30 2 43 4 28 2 -16 2 -40 0 -55z m3570 35
c-3 -7 -5 -2 -5 12 0 14 2 19 5 13 2 -7 2 -19 0 -25z m-1303 -4 c3 -8 2 -12
-4 -9 -6 3 -10 10 -10 16 0 14 7 11 14 -7z m-1269 -119 c-16 -13 -34 -24 -40
-24 -5 0 4 11 20 24 17 14 35 25 40 25 6 0 -3 -11 -20 -25z m-1612 -12 c-7 -2
-13 -8 -13 -13 0 -8 53 -11 257 -14 118 -2 155 -7 142 -20 -7 -7 -119 -13
-119 -6 0 3 -17 4 -37 4 -77 -3 -239 -6 -255 -5 -13 1 -17 9 -15 31 2 25 6 30
27 29 14 0 19 -3 13 -6z m-1122 -17 c5 3 9 0 9 -6 0 -15 -23 -7 -26 8 -1 7 0
8 3 2 2 -5 9 -8 14 -4z m109 -1 c0 -8 5 -15 10 -15 6 0 10 4 10 9 0 5 9 11 20
14 13 3 20 0 20 -9 0 -7 -6 -11 -13 -8 -7 2 -22 -5 -34 -16 -28 -25 -44 -25
-66 0 -10 12 -22 18 -27 15 -6 -3 -10 0 -10 7 0 8 16 14 45 16 35 2 45 -1 45
-13z m-441 -127 c-2 -153 -7 -144 -11 20 -2 61 0 112 4 112 5 0 7 -60 7 -132z
m5004 125 c-18 -2 -48 -2 -65 0 -18 2 -4 4 32 4 36 0 50 -2 33 -4z m657 -3 c0
-5 -2 -10 -4 -10 -3 0 -8 5 -11 10 -3 6 -1 10 4 10 6 0 11 -4 11 -10z m-527
-7 c-13 -2 -33 -2 -45 0 -13 2 -3 4 22 4 25 0 35 -2 23 -4z m70 -10 c-7 -2
-21 -2 -30 0 -10 3 -4 5 12 5 17 0 24 -2 18 -5z m-5073 -17 c0 -3 -4 -8 -10
-11 -5 -3 -10 -1 -10 4 0 6 5 11 10 11 6 0 10 -2 10 -4z m5147 -2 c-3 -3 -12
-4 -19 -1 -8 3 -5 6 6 6 11 1 17 -2 13 -5z m-4729 -31 c-2 -11 -12 -18 -27
-18 -15 0 -27 -8 -32 -23 -5 -12 -13 -22 -18 -22 -6 0 -8 -7 -4 -15 4 -13 -2
-15 -28 -14 -19 1 -45 -1 -57 -5 -21 -7 -23 -6 -13 12 8 15 7 21 -4 25 -9 4
-12 1 -8 -10 3 -8 1 -18 -6 -22 -8 -5 -9 -15 -2 -32 5 -13 10 -19 10 -13 1 12
106 25 129 17 6 -3 12 -11 12 -18 0 -10 -19 -14 -67 -14 -38 -1 -77 -2 -88 -2
-11 0 -29 0 -40 1 -11 1 -41 0 -66 -3 -25 -3 -51 -2 -59 3 -23 14 0 29 41 27
22 -2 42 0 44 4 3 3 21 5 41 3 22 -1 33 1 27 7 -13 13 -72 18 -79 7 -7 -10
-94 0 -108 13 -6 6 -4 9 5 9 10 1 9 3 -4 11 -24 14 -12 29 24 29 16 0 29 5 29
10 0 6 -18 10 -40 10 -28 0 -40 4 -40 14 0 8 5 16 10 18 6 2 103 4 216 6 194
3 205 2 202 -15z m1492 -3 c0 -19 -7 -20 -140 -17 -77 1 -140 -1 -140 -5 0 -9
8 -10 70 -9 43 0 43 0 15 -9 -16 -6 -35 -8 -42 -5 -7 2 -15 0 -18 -5 -4 -6
-15 -10 -26 -10 -10 0 -19 -4 -19 -10 0 -5 3 -9 8 -7 4 1 9 -2 11 -8 15 -34
101 -63 101 -33 0 9 3 9 11 1 6 -6 26 -9 45 -6 18 3 41 3 50 -1 32 -12 -2 -28
-68 -32 -35 -2 -88 -8 -118 -13 l-55 -9 72 1 c39 1 69 -1 66 -5 -2 -5 -32 -8
-67 -8 -49 0 -67 4 -84 20 -12 12 -22 16 -22 9 0 -7 -10 -9 -25 -7 -14 3 -25
1 -25 -3 0 -5 -10 -10 -22 -10 -19 -1 -17 -3 7 -9 l30 -8 -32 -1 c-17 0 -35 4
-39 10 -4 8 -33 9 -89 4 -57 -4 -85 -3 -90 5 -11 18 15 40 40 34 13 -3 26 -1
29 5 4 6 4 11 -1 11 -4 0 -8 11 -8 25 0 17 6 25 17 25 24 0 32 19 11 27 -10 4
-33 7 -50 7 -20 0 -33 5 -33 13 0 8 -9 11 -29 7 -26 -6 -28 -4 -24 20 l5 25
339 0 c330 0 339 0 339 -19z m27 -42 c-3 -7 -5 -2 -5 12 0 14 2 19 5 13 2 -7
2 -19 0 -25z m3578 12 c-3 -5 -12 -7 -20 -3 -21 7 -19 13 6 13 11 0 18 -4 14
-10z m-3652 -7 c-13 -2 -35 -2 -50 0 -16 2 -5 4 22 4 28 0 40 -2 28 -4z m3634
-23 c-1 -22 -27 -28 -27 -6 0 8 -6 17 -12 19 -7 3 -1 6 14 6 21 1 26 -3 25
-19z m-5037 -10 c0 -5 -2 -10 -4 -10 -3 0 -8 5 -11 10 -3 6 -1 10 4 10 6 0 11
-4 11 -10z m2260 6 c0 -3 -4 -8 -10 -11 -5 -3 -10 -1 -10 4 0 6 5 11 10 11 6
0 10 -2 10 -4z m2835 -66 c3 -5 1 -10 -4 -10 -6 0 -11 5 -11 10 0 6 2 10 4 10
3 0 8 -4 11 -10z m-5005 -56 c0 -12 -17 -14 -90 -11 -73 2 -90 0 -94 -13 -2
-8 -4 -3 -5 13 0 15 4 27 9 27 6 0 10 -4 10 -10 0 -14 44 -12 58 2 8 8 15 9
20 3 4 -6 24 -11 46 -13 31 -2 37 1 32 13 -3 9 -2 13 4 10 6 -3 10 -13 10 -21z
m1337 9 c-20 -2 -52 -2 -70 0 -17 2 0 4 38 4 39 0 53 -2 32 -4z m620 -9 c-3
-3 -12 -4 -19 -1 -8 3 -5 6 6 6 11 1 17 -2 13 -5z m3320 -16 c-3 -8 -6 -5 -6
6 -1 11 2 17 5 13 3 -3 4 -12 1 -19z m-4490 -4 c-3 -3 -12 -4 -19 -1 -8 3 -5
6 6 6 11 1 17 -2 13 -5z m1100 -15 c-21 -11 -35 -24 -32 -29 4 -6 1 -10 -4
-10 -6 0 -11 -4 -11 -10 0 -5 9 -10 21 -10 11 0 17 5 14 10 -3 6 -1 10 4 10
18 0 12 -18 -15 -43 l-25 -24 -52 21 -52 20 85 42 c85 43 138 61 67 23z m3123
10 c3 7 7 -2 7 -19 0 -38 3 -40 52 -47 23 -3 41 -10 41 -15 0 -6 -7 -7 -16 -4
-9 3 -30 6 -49 6 -27 0 -33 4 -38 28 -3 15 -7 34 -10 42 -2 8 -2 11 1 6 2 -4
8 -3 12 3z m-5020 -5 c-35 -7 -160 -9 -160 -2 0 4 39 7 88 7 48 -1 80 -3 72
-5z m1925 -24 c-3 -5 -14 -10 -23 -9 -14 0 -13 2 3 9 27 11 27 11 20 0z m45
-10 c-8 -6 -22 -10 -30 -10 -8 0 -4 6 10 13 27 15 44 12 20 -3z m3257 -56 c-3
-3 -12 -4 -19 -1 -8 3 -5 6 6 6 11 1 17 -2 13 -5z m60 -10 c-3 -3 -12 -4 -19
-1 -8 3 -5 6 6 6 11 1 17 -2 13 -5z m-3488 -18 c30 -16 54 -41 57 -60 1 -7 11
-32 22 -57 21 -45 21 -62 0 -41 -8 8 -14 7 -24 -3 -8 -7 -14 -17 -14 -22 -1
-13 -38 -58 -49 -59 -6 -1 -15 -2 -21 -3 -5 0 -10 -10 -10 -21 0 -12 -5 -17
-14 -14 -7 3 -23 -6 -34 -20 -11 -14 -25 -26 -31 -26 -6 0 -11 -5 -11 -10 0
-6 -15 -25 -33 -43 -38 -38 -81 -95 -90 -119 -7 -21 -26 -24 -28 -5 -1 6 -4
-1 -8 -18 -4 -22 -13 -31 -30 -33 -15 -2 -20 -7 -13 -11 8 -5 7 -13 -4 -30
-13 -18 -18 -20 -25 -10 -6 10 -9 8 -9 -8 0 -14 -24 -46 -63 -85 -34 -35 -67
-74 -73 -88 -12 -27 -31 -50 -107 -133 -100 -110 -222 -214 -294 -251 -18 -9
-33 -21 -33 -26 0 -6 -11 -10 -24 -10 -13 0 -26 -5 -28 -11 -4 -13 -70 -28
-124 -29 -50 0 -140 46 -211 107 -26 23 -57 50 -69 60 -11 10 -26 32 -32 48
-6 17 -11 23 -11 15 0 -8 8 -34 19 -57 10 -24 15 -43 11 -43 -11 0 -36 53 -50
107 -23 86 24 196 112 262 116 87 229 98 479 45 l78 -17 -105 -109 c-119 -125
-141 -166 -33 -62 166 159 235 240 401 467 69 96 159 209 198 251 74 79 170
159 211 175 35 14 86 13 117 -3z m762 -169 c-10 -9 -11 -8 -5 6 3 10 9 15 12
12 3 -3 0 -11 -7 -18z m-1342 -283 c-57 -75 -122 -160 -144 -189 -22 -30 -47
-54 -55 -54 -31 -2 -246 53 -297 75 -43 19 -53 28 -53 48 0 41 -97 103 -255
162 l-50 19 80 7 c73 7 376 33 680 58 163 14 189 16 194 13 2 -2 -43 -64 -100
-139z m-888 50 c30 -8 68 -21 84 -28 17 -7 61 -26 99 -41 60 -25 136 -79 125
-89 -2 -2 -38 5 -79 16 -104 27 -208 21 -283 -16 -51 -24 -110 -78 -134 -121
-9 -16 -13 -16 -56 4 -25 12 -49 21 -52 21 -3 0 -31 11 -61 25 -30 14 -60 25
-66 25 -21 0 0 73 29 97 48 39 262 120 324 122 8 1 40 -6 70 -15z m2116 -156
c-3 -8 -6 -5 -6 6 -1 11 2 17 5 13 3 -3 4 -12 1 -19z m-1849 -27 c28 -13 52
-28 52 -33 0 -5 3 -7 8 -4 4 2 18 -1 31 -8 22 -12 17 -14 -55 -23 -108 -14
-180 -51 -249 -125 -30 -32 -55 -65 -56 -71 -1 -7 -4 -1 -8 13 -4 14 -28 41
-54 60 -26 19 -47 43 -47 52 0 10 -4 18 -9 18 -5 0 -13 9 -16 21 -9 28 34 74
100 106 45 21 60 24 150 20 77 -2 112 -9 153 -26z m4520 2 c-10 -2 -28 -2 -40
0 -13 2 -5 4 17 4 22 1 32 -1 23 -4z m49 -9 c-3 -3 -12 -4 -19 -1 -8 3 -5 6 6
6 11 1 17 -2 13 -5z m56 -11 c-7 -2 -19 -2 -25 0 -7 3 -2 5 12 5 14 0 19 -2
13 -5z m44 -9 c-3 -3 -12 -4 -19 -1 -8 3 -5 6 6 6 11 1 17 -2 13 -5z m-2840
-46 c-3 -8 -6 -5 -6 6 -1 11 2 17 5 13 3 -3 4 -12 1 -19z m-2237 -37 c0 -6 -4
-13 -10 -16 -5 -3 -10 1 -10 9 0 9 5 16 10 16 6 0 10 -4 10 -9z m13 -41 c3
-11 1 -18 -4 -14 -5 3 -9 12 -9 20 0 20 7 17 13 -6z m-10 -70 c-6 -7 -23 23
-23 40 0 8 6 4 13 -10 8 -14 12 -27 10 -30z m4751 -55 c-2 -25 0 -44 4 -41 4
3 14 1 21 -3 9 -6 1 -10 -23 -13 -39 -4 -44 2 -21 25 8 8 11 17 8 20 -5 6 4
57 11 57 2 0 2 -20 0 -45z m649 18 c-7 -2 -21 -2 -30 0 -10 3 -4 5 12 5 17 0
24 -2 18 -5z m-110 -10 c-7 -2 -21 -2 -30 0 -10 3 -4 5 12 5 17 0 24 -2 18 -5z
m-75 -10 c-16 -2 -40 -2 -55 0 -16 2 -3 4 27 4 30 0 43 -2 28 -4z m-109 -7
c-5 -5 -258 -36 -290 -36 -39 0 -13 11 37 16 27 2 78 8 114 13 73 9 146 13
139 7z m-4889 -263 c0 -5 13 -24 30 -43 16 -19 27 -36 24 -39 -2 -2 -11 4 -19
15 -45 57 -55 74 -46 74 6 0 11 -3 11 -7z m-36 -53 c-10 -4 -21 -6 -24 -3 -8
7 24 22 34 16 5 -4 1 -10 -10 -13z m121 -60 c10 -11 16 -20 13 -20 -3 0 -13 9
-23 20 -10 11 -16 20 -13 20 3 0 13 -9 23 -20z m75 -70 c0 -5 -2 -10 -4 -10
-3 0 -8 5 -11 10 -3 6 -1 10 4 10 6 0 11 -4 11 -10z m3330 -2590 c0 -12 -56
-12 -120 -1 -40 8 -37 9 38 10 49 0 82 -3 82 -9z m-1416 -278 c-2 -2 -16 4
-32 14 -28 16 -36 16 -168 -5 -77 -11 -146 -21 -154 -21 -12 0 -16 16 -18 76
-1 48 2 73 8 69 5 -3 11 -32 12 -63 l1 -57 7 45 c7 42 7 43 9 10 1 -22 4 -30
9 -22 5 7 16 10 25 6 26 -10 41 6 20 21 -29 21 -11 26 52 14 46 -8 60 -8 66 3
7 10 11 10 21 0 6 -6 30 -11 53 -11 22 1 32 3 22 6 -9 2 -15 8 -12 13 3 5 12
7 20 3 10 -3 15 1 15 13 0 12 3 15 10 8 7 -7 6 -19 -2 -37 -11 -21 -21 -27
-58 -30 -42 -3 -42 -3 11 -5 62 -2 66 3 70 73 1 17 5 -4 9 -45 3 -41 5 -77 4
-78z m3304 -4 c-6 -18 -28 -21 -28 -4 0 9 7 16 16 16 9 0 14 -5 12 -12z
m-2312 -194 c-4 -9 -11 -36 -17 -60 -6 -24 -12 -44 -13 -44 -1 0 -40 15 -87
34 -46 18 -93 37 -104 41 -14 5 13 13 90 25 147 23 138 23 131 4z m365 -377
c-10 -9 -11 -8 -5 6 3 10 9 15 12 12 3 -3 0 -11 -7 -18z m-4916 -197 c-3 -5 3
-10 14 -10 12 0 21 -4 21 -10 0 -5 -9 -10 -19 -10 -11 0 -23 5 -26 10 -3 6
-17 10 -31 10 -13 0 -24 5 -24 10 0 6 16 10 36 10 21 0 33 -4 29 -10z m1785
-100 c0 -5 -7 -10 -15 -10 -8 0 -15 5 -15 10 0 6 7 10 15 10 8 0 15 -4 15 -10z
m60 1 c0 -5 -11 -11 -25 -13 -24 -5 -32 2 -18 15 9 10 43 8 43 -2z m1557 -523
c-3 -8 -6 -5 -6 6 -1 11 2 17 5 13 3 -3 4 -12 1 -19z m71 -5 c-2 -10 -13 -19
-26 -21 -26 -4 -28 6 -4 24 24 18 34 17 30 -3z m195 -20 c-7 -2 -19 -2 -25 0
-7 3 -2 5 12 5 14 0 19 -2 13 -5z m-66 -9 c-3 -3 -12 -4 -19 -1 -8 3 -5 6 6 6
11 1 17 -2 13 -5z m47 -100 c9 -24 7 -34 -8 -34 -16 0 -29 27 -20 41 8 14 21
11 28 -7z m49 -34 c-3 -11 -9 -20 -14 -20 -10 0 -12 33 -3 43 12 12 22 -3 17
-23z"/>
<path d="M3600 6270 c0 -5 5 -10 11 -10 5 0 7 5 4 10 -3 6 -8 10 -11 10 -2 0
-4 -4 -4 -10z"/>
<path d="M1912 7494 c8 -8 157 -8 165 0 4 3 -33 6 -82 6 -49 0 -86 -3 -83 -6z"/>
<path d="M2118 7493 c7 -3 16 -2 19 1 4 3 -2 6 -13 5 -11 0 -14 -3 -6 -6z"/>
<path d="M2164 7492 c3 -4 39 -9 81 -10 42 0 73 3 70 8 -3 5 -39 9 -80 9 -42
0 -74 -3 -71 -7z"/>
<path d="M1900 7450 c0 -5 5 -10 11 -10 5 0 7 5 4 10 -3 6 -8 10 -11 10 -2 0
-4 -4 -4 -10z"/>
<path d="M1958 7443 c7 -3 16 -2 19 1 4 3 -2 6 -13 5 -11 0 -14 -3 -6 -6z"/>
<path d="M2031 7345 c8 -7 139 -9 146 -1 3 3 -29 6 -72 6 -43 0 -76 -2 -74 -5z"/>
<path d="M2020 7298 c0 -4 6 -8 14 -8 8 0 17 -8 19 -17 3 -11 4 -7 4 7 -1 18
-7 26 -19 26 -10 0 -18 -4 -18 -8z"/>
<path d="M2070 7288 c0 -5 17 -8 37 -8 20 0 33 3 29 8 -4 4 -21 7 -37 7 -16 0
-29 -3 -29 -7z"/>
<path d="M2150 7289 c0 -5 9 -9 20 -9 11 0 20 4 20 8 0 4 -9 8 -20 9 -11 1
-20 -2 -20 -8z"/>
<path d="M2215 7286 c-18 -13 -18 -14 8 -9 15 3 24 9 21 14 -7 12 -7 12 -29
-5z"/>
<path d="M2050 7239 c0 -5 26 -9 57 -9 31 0 54 2 52 4 -9 9 -109 14 -109 5z"/>
<path d="M2170 7229 c0 -5 5 -7 10 -4 6 3 10 8 10 11 0 2 -4 4 -10 4 -5 0 -10
-5 -10 -11z"/>
<path d="M2040 7178 c0 -4 7 -8 15 -8 8 0 15 4 15 8 0 5 -7 9 -15 9 -8 0 -15
-4 -15 -9z"/>
<path d="M2144 7183 c10 -11 36 -12 36 -2 0 5 -10 9 -22 9 -12 0 -18 -3 -14
-7z"/>
<path d="M2046 7144 c-4 -9 -4 -19 -1 -22 3 -3 5 0 5 7 0 7 5 9 10 6 6 -3 10
-2 10 4 0 18 -18 21 -24 5z"/>
<path d="M2136 7126 c4 -10 -3 -16 -23 -19 -27 -4 -27 -4 5 -6 26 -1 32 3 32
19 0 11 -4 20 -10 20 -5 0 -7 -6 -4 -14z"/>
<path d="M2168 7133 c7 -3 16 -2 19 1 4 3 -2 6 -13 5 -11 0 -14 -3 -6 -6z"/>
<path d="M2055 7110 c-3 -5 1 -10 10 -10 9 0 13 5 10 10 -3 6 -8 10 -10 10 -2
0 -7 -4 -10 -10z"/>
<path d="M2046 7082 c-9 -14 12 -35 28 -29 24 9 19 26 -6 19 -14 -3 -19 -2
-14 6 4 7 5 12 2 12 -3 0 -7 -4 -10 -8z"/>
<path d="M2178 7063 c7 -3 16 -2 19 1 4 3 -2 6 -13 5 -11 0 -14 -3 -6 -6z"/>
<path d="M2338 7063 c7 -3 16 -2 19 1 4 3 -2 6 -13 5 -11 0 -14 -3 -6 -6z"/>
<path d="M2370 7059 c0 -5 5 -7 10 -4 6 3 10 8 10 11 0 2 -4 4 -10 4 -5 0 -10
-5 -10 -11z"/>
<path d="M2470 7060 c20 -13 43 -13 35 0 -3 6 -16 10 -28 10 -18 0 -19 -2 -7
-10z"/>
<path d="M2045 7030 c-3 -5 1 -10 9 -10 9 0 16 5 16 10 0 6 -4 10 -9 10 -6 0
-13 -4 -16 -10z"/>
<path d="M2286 7031 c-4 -6 -18 -9 -32 -7 -13 3 -24 0 -24 -5 0 -10 0 -10 48
-12 34 -2 37 0 23 22 -6 9 -11 10 -15 2z"/>
<path d="M2128 6963 c7 -3 16 -2 19 1 4 3 -2 6 -13 5 -11 0 -14 -3 -6 -6z"/>
<path d="M2128 6923 c7 -3 16 -2 19 1 4 3 -2 6 -13 5 -11 0 -14 -3 -6 -6z"/>
<path d="M2166 6921 c-4 -5 3 -7 14 -4 23 6 26 13 6 13 -8 0 -17 -4 -20 -9z"/>
<path d="M2220 6920 c0 -6 7 -10 15 -10 8 0 15 2 15 4 0 2 -7 6 -15 10 -8 3
-15 1 -15 -4z"/>
<path d="M2256 6879 c3 -5 26 -9 51 -9 26 0 44 2 42 4 -9 8 -98 13 -93 5z"/>
<path d="M5592 7471 c-11 -6 -10 -9 3 -15 30 -11 77 -7 73 7 -5 15 -58 21 -76
8z m51 -8 c-7 -2 -21 -2 -30 0 -10 3 -4 5 12 5 17 0 24 -2 18 -5z"/>
<path d="M5460 7450 c20 -13 33 -13 25 0 -3 6 -14 10 -23 10 -15 0 -15 -2 -2
-10z"/>
<path d="M5785 7420 c-11 -4 -26 -5 -34 -2 -9 3 -12 1 -8 -5 7 -11 72 -11 83
-1 9 10 -21 15 -41 8z"/>
<path d="M5707 7409 c7 -7 15 -10 18 -7 3 3 -2 9 -12 12 -14 6 -15 5 -6 -5z"/>
<path d="M5640 7400 c0 -12 8 -12 35 0 18 8 17 9 -7 9 -16 1 -28 -3 -28 -9z"/>
<path d="M5478 7388 c9 -9 15 -9 24 0 9 9 7 12 -12 12 -19 0 -21 -3 -12 -12z"/>
<path d="M5550 7389 c0 -5 5 -7 10 -4 6 3 10 8 10 11 0 2 -4 4 -10 4 -5 0 -10
-5 -10 -11z"/>
<path d="M5355 7380 c-3 -5 -1 -10 4 -10 6 0 11 5 11 10 0 6 -2 10 -4 10 -3 0
-8 -4 -11 -10z"/>
<path d="M5930 7370 c0 -5 4 -10 9 -10 6 0 13 5 16 10 3 6 -1 10 -9 10 -9 0
-16 -4 -16 -10z"/>
<path d="M5228 7363 c6 -2 18 -2 25 0 6 3 1 5 -13 5 -14 0 -19 -2 -12 -5z"/>
<path d="M5788 7363 c6 -2 18 -2 25 0 6 3 1 5 -13 5 -14 0 -19 -2 -12 -5z"/>
<path d="M6100 7360 c0 -5 5 -10 11 -10 5 0 7 5 4 10 -3 6 -8 10 -11 10 -2 0
-4 -4 -4 -10z"/>
<path d="M5575 7350 c3 -5 8 -10 11 -10 2 0 4 5 4 10 0 6 -5 10 -11 10 -5 0
-7 -4 -4 -10z"/>
<path d="M6214 7345 c-6 -16 12 -45 28 -45 5 0 4 9 -2 20 -6 11 -8 25 -5 30 3
6 1 10 -5 10 -6 0 -13 -7 -16 -15z"/>
<path d="M5428 7333 c7 -3 16 -2 19 1 4 3 -2 6 -13 5 -11 0 -14 -3 -6 -6z"/>
<path d="M5298 7323 c7 -3 16 -2 19 1 4 3 -2 6 -13 5 -11 0 -14 -3 -6 -6z"/>
<path d="M6086 7295 c-9 -13 -16 -26 -16 -27 0 -8 106 5 115 14 7 7 5 9 -5 6
-8 -3 -23 -1 -32 4 -12 5 -18 5 -18 -2 0 -5 -6 -10 -14 -10 -9 0 -12 7 -9 20
7 27 -1 25 -21 -5z"/>
<path d="M6273 7293 c-13 -2 -23 -9 -23 -15 0 -6 10 -8 23 -4 12 3 25 6 30 6
4 0 7 5 7 10 0 6 -3 9 -7 9 -5 -1 -18 -4 -30 -6z"/>
<path d="M5197 7283 c-4 -3 -7 -11 -7 -17 0 -6 5 -5 12 2 6 6 9 14 7 17 -3 3
-9 2 -12 -2z"/>
<path d="M5315 7280 c3 -5 8 -10 11 -10 2 0 4 5 4 10 0 6 -5 10 -11 10 -5 0
-7 -4 -4 -10z"/>
<path d="M5390 7279 c0 -5 5 -7 10 -4 6 3 10 8 10 11 0 2 -4 4 -10 4 -5 0 -10
-5 -10 -11z"/>
<path d="M6210 7286 c0 -2 7 -6 15 -10 8 -3 15 -1 15 4 0 6 -7 10 -15 10 -8 0
-15 -2 -15 -4z"/>
<path d="M5970 7269 c0 -5 5 -7 10 -4 6 3 10 8 10 11 0 2 -4 4 -10 4 -5 0 -10
-5 -10 -11z"/>
<path d="M5848 7253 c7 -3 16 -2 19 1 4 3 -2 6 -13 5 -11 0 -14 -3 -6 -6z"/>
<path d="M5410 7236 c7 -7 13 -7 20 0 6 6 3 10 -10 10 -13 0 -16 -4 -10 -10z"/>
<path d="M5475 7240 c-8 -13 5 -13 25 0 13 8 13 10 -2 10 -9 0 -20 -4 -23 -10z"/>
<path d="M5230 7230 c0 -5 7 -10 15 -10 8 0 15 5 15 10 0 6 -7 10 -15 10 -8 0
-15 -4 -15 -10z"/>
<path d="M5900 7209 c0 -5 5 -7 10 -4 6 3 10 8 10 11 0 2 -4 4 -10 4 -5 0 -10
-5 -10 -11z"/>
<path d="M5997 7206 c-4 -10 -1 -13 9 -9 7 3 14 9 14 14 0 14 -17 10 -23 -5z"/>
<path d="M5723 7203 c15 -2 39 -2 55 0 15 2 2 4 -28 4 -30 0 -43 -2 -27 -4z"/>
<path d="M5530 7190 c0 -5 5 -10 10 -10 6 0 10 5 10 10 0 6 -4 10 -10 10 -5 0
-10 -4 -10 -10z"/>
<path d="M6129 7181 c-13 -11 -19 -20 -13 -21 15 0 50 27 43 34 -3 4 -17 -2
-30 -13z"/>
<path d="M5140 7150 c0 -5 7 -7 15 -4 8 4 15 8 15 10 0 2 -7 4 -15 4 -8 0 -15
-4 -15 -10z"/>
<path d="M5640 7140 c-13 -8 -12 -10 3 -10 9 0 17 5 17 10 0 12 -1 12 -20 0z"/>
<path d="M5700 7140 c-35 -7 -35 -7 -5 -9 17 0 37 4 45 9 17 11 11 11 -40 0z"/>
<path d="M5438 7123 c6 -2 18 -2 25 0 6 3 1 5 -13 5 -14 0 -19 -2 -12 -5z"/>
<path d="M5160 7110 c-60 -7 -58 -13 5 -10 22 1 44 6 50 11 5 5 7 8 5 7 -3 -1
-30 -4 -60 -8z"/>
<path d="M5240 7110 c-9 -6 -10 -10 -3 -10 6 0 15 5 18 10 8 12 4 12 -15 0z"/>
<path d="M5708 7083 c7 -3 16 -2 19 1 4 3 -2 6 -13 5 -11 0 -14 -3 -6 -6z"/>
<path d="M5100 7052 c0 -4 17 -6 38 -4 58 5 62 10 10 11 -27 1 -48 -3 -48 -7z"/>
<path d="M5282 6964 c-14 -16 -5 -18 17 -5 7 5 9 11 5 14 -5 3 -15 -1 -22 -9z"/>
<path d="M5044 6958 c-3 -4 13 -8 35 -8 23 0 41 2 41 4 0 8 -71 12 -76 4z"/>
<path d="M5915 6959 c-4 -6 -5 -12 -2 -15 2 -3 7 2 10 11 7 17 1 20 -8 4z"/>
<path d="M5003 6894 c-6 -10 -10 -97 -10 -194 0 -155 0 -165 7 -85 5 50 9 128
10 174 2 46 6 78 10 71 5 -9 9 -8 13 3 3 8 0 23 -7 33 -13 17 -14 17 -23 -2z"/>
<path d="M5685 6880 c3 -5 8 -10 11 -10 2 0 4 5 4 10 0 6 -5 10 -11 10 -5 0
-7 -4 -4 -10z"/>
<path d="M5873 6883 c9 -2 25 -2 35 0 9 3 1 5 -18 5 -19 0 -27 -2 -17 -5z"/>
<path d="M5948 6883 c7 -3 16 -2 19 1 4 3 -2 6 -13 5 -11 0 -14 -3 -6 -6z"/>
<path d="M6023 6883 c9 -2 23 -2 30 0 6 3 -1 5 -18 5 -16 0 -22 -2 -12 -5z"/>
<path d="M6175 6870 c-3 -5 1 -10 9 -10 9 0 16 5 16 10 0 6 -4 10 -9 10 -6 0
-13 -4 -16 -10z"/>
<path d="M5707 6835 c3 -8 9 -12 14 -9 12 7 11 11 -5 17 -10 4 -13 1 -9 -8z"/>
<path d="M5780 6839 c-20 -4 -26 -7 -15 -9 11 -1 30 -3 42 -4 12 -1 27 1 34 4
17 11 -21 17 -61 9z"/>
<path d="M5935 6840 l-40 -7 48 -2 c30 0 46 3 42 9 -3 6 -7 9 -8 9 -1 -1 -20
-5 -42 -9z"/>
<path d="M6000 6838 c0 -10 67 -11 73 0 3 4 -13 7 -34 7 -21 1 -39 -3 -39 -7z"/>
<path d="M6091 6836 c-10 -12 -8 -13 8 -9 12 3 18 9 15 14 -7 12 -10 11 -23
-5z"/>
<path d="M6147 6843 c-4 -3 -7 -11 -7 -17 0 -6 5 -5 12 2 6 6 9 14 7 17 -3 3
-9 2 -12 -2z"/>
<path d="M5047 6824 c2 -7 11 -10 19 -7 19 7 18 10 -5 16 -13 3 -18 1 -14 -9z"/>
<path d="M5868 6833 c7 -3 16 -2 19 1 4 3 -2 6 -13 5 -11 0 -14 -3 -6 -6z"/>
<path d="M6178 6833 c7 -3 16 -2 19 1 4 3 -2 6 -13 5 -11 0 -14 -3 -6 -6z"/>
<path d="M5661 6784 c0 -11 3 -14 6 -6 3 7 2 16 -1 19 -3 4 -6 -2 -5 -13z"/>
<path d="M5699 6784 c-8 -10 -8 -14 0 -14 6 0 11 5 11 10 0 7 7 7 21 0 11 -6
25 -10 32 -7 6 2 -3 8 -20 15 -25 8 -34 8 -44 -4z"/>
<path d="M5862 6788 c5 -15 28 -23 28 -10 0 5 -7 13 -16 16 -10 4 -14 1 -12
-6z"/>
<path d="M5900 6790 c0 -4 6 -13 14 -19 10 -8 16 -8 25 3 9 11 6 15 -14 18
-14 3 -25 2 -25 -2z"/>
<path d="M6026 6792 c-3 -5 -19 -7 -36 -4 -24 3 -30 1 -30 -14 0 -13 3 -15 11
-7 7 7 25 9 40 6 22 -4 29 -2 29 11 0 17 -6 21 -14 8z"/>
<path d="M6107 6790 c-16 -5 -35 -6 -43 -3 -8 3 -14 1 -14 -5 0 -14 28 -23 35
-12 4 6 17 7 31 4 18 -5 24 -2 24 10 0 9 -1 16 -2 15 -2 0 -16 -5 -31 -9z"/>
<path d="M5143 6783 c9 -2 23 -2 30 0 6 3 -1 5 -18 5 -16 0 -22 -2 -12 -5z"/>
<path d="M5835 6780 c-3 -5 -1 -10 4 -10 6 0 11 5 11 10 0 6 -2 10 -4 10 -3 0
-8 -4 -11 -10z"/>
<path d="M6170 6749 c-23 -9 -23 -11 -7 -20 9 -6 17 -17 17 -25 0 -8 4 -13 8
-10 5 3 8 15 7 28 -1 13 3 26 9 30 16 11 -4 9 -34 -3z"/>
<path d="M5538 6733 c7 -3 16 -2 19 1 4 3 -2 6 -13 5 -11 0 -14 -3 -6 -6z"/>
<path d="M5888 6733 c7 -3 16 -2 19 1 4 3 -2 6 -13 5 -11 0 -14 -3 -6 -6z"/>
<path d="M5928 6733 c7 -3 16 -2 19 1 4 3 -2 6 -13 5 -11 0 -14 -3 -6 -6z"/>
<path d="M5980 6736 c0 -2 7 -6 15 -10 8 -3 15 -1 15 4 0 6 -7 10 -15 10 -8 0
-15 -2 -15 -4z"/>
<path d="M6073 6733 c9 -2 23 -2 30 0 6 3 -1 5 -18 5 -16 0 -22 -2 -12 -5z"/>
<path d="M5070 6699 c0 -5 5 -7 10 -4 6 3 10 8 10 11 0 2 -4 4 -10 4 -5 0 -10
-5 -10 -11z"/>
<path d="M5628 6693 c6 -2 18 -2 25 0 6 3 1 5 -13 5 -14 0 -19 -2 -12 -5z"/>
<path d="M5825 6686 c22 -7 46 -11 53 -8 20 7 10 11 -44 16 l-49 5 40 -13z"/>
<path d="M5950 6692 c0 -8 58 -8 66 0 2 3 -12 5 -31 6 -19 1 -35 -2 -35 -6z"/>
<path d="M6030 6696 c0 -2 11 -6 25 -8 14 -3 25 -1 25 3 0 5 -11 9 -25 9 -14
0 -25 -2 -25 -4z"/>
<path d="M6090 6690 c0 -5 6 -7 14 -4 8 3 17 1 20 -5 4 -6 14 -7 23 -4 15 6
14 7 -3 14 -27 11 -54 11 -54 -1z"/>
<path d="M5070 6664 c0 -8 5 -12 10 -9 6 4 8 11 5 16 -9 14 -15 11 -15 -7z"/>
<path d="M5835 6650 c-19 -8 -19 -9 3 -9 12 -1 22 4 22 9 0 6 -1 10 -2 9 -2 0
-12 -4 -23 -9z"/>
<path d="M5088 6613 c6 -2 18 -2 25 0 6 3 1 5 -13 5 -14 0 -19 -2 -12 -5z"/>
<path d="M5230 6610 c0 -5 7 -7 15 -4 8 4 15 8 15 10 0 2 -7 4 -15 4 -8 0 -15
-4 -15 -10z"/>
<path d="M5677 6593 c3 -7 9 -10 14 -7 14 8 11 21 -5 21 -8 0 -12 -6 -9 -14z"/>
<path d="M5064 6589 c-3 -6 -1 -16 4 -21 8 -8 11 -5 9 11 -1 24 -3 25 -13 10z"/>
<path d="M5430 6560 c0 -5 5 -10 10 -10 6 0 10 5 10 10 0 6 -4 10 -10 10 -5 0
-10 -4 -10 -10z"/>
<path d="M5475 6560 c3 -5 11 -10 16 -10 6 0 7 5 4 10 -3 6 -11 10 -16 10 -6
0 -7 -4 -4 -10z"/>
<path d="M5602 6558 c2 -6 10 -14 16 -16 7 -2 10 2 6 12 -7 18 -28 22 -22 4z"/>
<path d="M5928 6533 c6 -2 18 -2 25 0 6 3 1 5 -13 5 -14 0 -19 -2 -12 -5z"/>
<path d="M5130 6499 c0 -5 9 -9 20 -9 11 0 20 2 20 4 0 2 -9 6 -20 9 -11 3
-20 1 -20 -4z"/>
<path d="M5928 6483 c7 -3 16 -2 19 1 4 3 -2 6 -13 5 -11 0 -14 -3 -6 -6z"/>
<path d="M5213 6433 c9 -2 25 -2 35 0 9 3 1 5 -18 5 -19 0 -27 -2 -17 -5z"/>
<path d="M5295 6430 c-3 -6 1 -7 9 -4 18 7 21 14 7 14 -6 0 -13 -4 -16 -10z"/>
<path d="M5395 6430 c3 -5 8 -10 11 -10 2 0 4 5 4 10 0 6 -5 10 -11 10 -5 0
-7 -4 -4 -10z"/>
<path d="M5002 6410 c0 -14 2 -19 5 -12 2 6 2 18 0 25 -3 6 -5 1 -5 -13z"/>
<path d="M6154 6340 c0 -52 1 -74 3 -47 2 26 2 68 0 95 -2 26 -3 4 -3 -48z"/>
<path d="M5077 6399 c7 -7 15 -10 18 -7 3 3 -2 9 -12 12 -14 6 -15 5 -6 -5z"/>
<path d="M5588 6373 c6 -2 18 -2 25 0 6 3 1 5 -13 5 -14 0 -19 -2 -12 -5z"/>
<path d="M5528 6343 c7 -3 16 -2 19 1 4 3 -2 6 -13 5 -11 0 -14 -3 -6 -6z"/>
<path d="M5838 6323 c6 -2 18 -2 25 0 6 3 1 5 -13 5 -14 0 -19 -2 -12 -5z"/>
<path d="M5026 6311 c-3 -5 1 -12 10 -15 22 -8 25 -4 9 11 -8 7 -16 9 -19 4z"/>
<path d="M5100 6306 c0 -2 7 -7 16 -10 8 -3 12 -2 9 4 -6 10 -25 14 -25 6z"/>
<path d="M5156 6296 c10 -8 21 -12 24 -10 5 6 -21 24 -34 24 -6 0 -1 -6 10
-14z"/>
<path d="M5308 6303 c7 -3 16 -2 19 1 4 3 -2 6 -13 5 -11 0 -14 -3 -6 -6z"/>
<path d="M5530 6300 c0 -5 5 -10 10 -10 6 0 10 5 10 10 0 6 -4 10 -10 10 -5 0
-10 -4 -10 -10z"/>
<path d="M5678 6283 c7 -3 16 -2 19 1 4 3 -2 6 -13 5 -11 0 -14 -3 -6 -6z"/>
<path d="M5868 6263 c6 -2 18 -2 25 0 6 3 1 5 -13 5 -14 0 -19 -2 -12 -5z"/>
<path d="M5833 6233 c9 -2 23 -2 30 0 6 3 -1 5 -18 5 -16 0 -22 -2 -12 -5z"/>
<path d="M6152 6205 c0 -16 2 -22 5 -12 2 9 2 23 0 30 -3 6 -5 -1 -5 -18z"/>
<path d="M6018 6173 c7 -3 16 -2 19 1 4 3 -2 6 -13 5 -11 0 -14 -3 -6 -6z"/>
<path d="M6136 6151 c10 -10 21 -17 23 -15 6 6 -20 34 -32 34 -6 0 -2 -8 9
-19z"/>
<path d="M6050 6156 c0 -2 7 -7 16 -10 8 -3 12 -2 9 4 -6 10 -25 14 -25 6z"/>
<path d="M6098 6133 c7 -3 16 -2 19 1 4 3 -2 6 -13 5 -11 0 -14 -3 -6 -6z"/>
<path d="M805 7460 c3 -5 13 -10 21 -10 8 0 12 5 9 10 -3 6 -13 10 -21 10 -8
0 -12 -4 -9 -10z"/>
<path d="M857 7459 c7 -7 15 -10 18 -7 3 3 -2 9 -12 12 -14 6 -15 5 -6 -5z"/>
<path d="M925 7460 c-3 -5 -2 -10 4 -10 5 0 13 5 16 10 3 6 2 10 -4 10 -5 0
-13 -4 -16 -10z"/>
<path d="M970 7460 c0 -5 7 -10 15 -10 8 0 15 5 15 10 0 6 -7 10 -15 10 -8 0
-15 -4 -15 -10z"/>
<path d="M700 7365 c0 -9 6 -12 15 -9 8 4 15 10 15 15 0 5 -7 9 -15 9 -8 0
-15 -7 -15 -15z"/>
<path d="M1800 6950 c0 -22 5 -40 10 -40 6 0 10 18 10 40 0 22 -4 40 -10 40
-5 0 -10 -18 -10 -40z"/>
<path d="M1847 6947 c-4 -10 -7 -31 -6 -45 l0 -27 10 25 c5 13 8 33 7 45 -3
19 -4 19 -11 2z"/>
<path d="M1772 6894 c-7 -8 -8 -14 -3 -14 10 0 25 19 20 25 -2 1 -10 -3 -17
-11z"/>
<path d="M1558 6833 c7 -3 16 -2 19 1 4 3 -2 6 -13 5 -11 0 -14 -3 -6 -6z"/>
<path d="M1853 6790 c0 -25 2 -35 4 -22 2 12 2 32 0 45 -2 12 -4 2 -4 -23z"/>
<path d="M1601 6800 c-1 -14 -4 -35 -7 -48 -6 -21 -7 -21 -20 -5 -12 17 -13
16 -14 -9 0 -21 5 -28 19 -28 16 0 21 9 26 44 4 25 5 51 2 58 -3 7 -6 2 -6
-12z"/>
<path d="M1582 6790 c0 -14 2 -19 5 -12 2 6 2 18 0 25 -3 6 -5 1 -5 -13z"/>
<path d="M1540 6780 c0 -5 5 -10 10 -10 6 0 10 5 10 10 0 6 -4 10 -10 10 -5 0
-10 -4 -10 -10z"/>
<path d="M1297 6735 c19 -26 33 -32 33 -14 0 12 -29 38 -43 39 -4 0 0 -11 10
-25z"/>
<path d="M1460 6705 c0 -8 7 -15 15 -15 8 0 15 7 15 15 0 8 -7 15 -15 15 -8 0
-15 -7 -15 -15z"/>
<path d="M1506 6693 c-4 -13 -16 -23 -27 -23 -10 0 -19 -7 -19 -15 0 -10 10
-15 30 -15 25 0 30 -4 30 -25 0 -16 6 -25 15 -25 11 0 15 11 15 40 0 28 -4 40
-14 40 -8 0 -16 10 -18 23 l-4 22 -8 -22z"/>
<path d="M995 6680 c3 -5 8 -10 11 -10 2 0 4 5 4 10 0 6 -5 10 -11 10 -5 0 -7
-4 -4 -10z"/>
<path d="M1025 6680 c7 -11 75 -10 75 2 0 4 -18 8 -41 8 -23 0 -38 -4 -34 -10z"/>
<path d="M1110 6680 c0 -5 7 -10 16 -10 8 0 12 5 9 10 -3 6 -10 10 -16 10 -5
0 -9 -4 -9 -10z"/>
<path d="M1150 6681 c0 -11 40 -22 54 -14 5 4 1 10 -10 14 -27 11 -44 11 -44
0z"/>
<path d="M1268 6673 c6 -2 18 -2 25 0 6 3 1 5 -13 5 -14 0 -19 -2 -12 -5z"/>
<path d="M1315 6670 c3 -5 -1 -10 -9 -10 -12 0 -16 -10 -16 -35 0 -28 4 -35
20 -35 17 0 20 7 20 39 0 22 5 42 13 44 6 3 2 6 -11 6 -13 1 -20 -3 -17 -9z"/>
<path d="M1373 6673 c10 -3 17 -14 17 -29 0 -13 5 -24 10 -24 6 0 10 14 10 30
0 26 -3 30 -27 29 -17 -1 -21 -3 -10 -6z"/>
<path d="M1435 6670 c3 -5 8 -10 11 -10 2 0 4 5 4 10 0 6 -5 10 -11 10 -5 0
-7 -4 -4 -10z"/>
<path d="M1852 6645 c0 -16 2 -22 5 -12 2 9 2 23 0 30 -3 6 -5 -1 -5 -18z"/>
<path d="M1175 6636 c-36 -41 -38 -46 -21 -46 9 0 20 8 23 18 4 9 11 20 16 23
5 4 5 9 1 12 -5 3 -13 0 -19 -7z"/>
<path d="M1200 6610 c0 -5 0 -13 1 -17 0 -4 -10 -12 -23 -17 -20 -9 -17 -11
26 -14 27 -2 55 -1 62 2 25 10 15 26 -16 26 -20 0 -30 5 -30 15 0 8 -4 15 -10
15 -5 0 -10 -4 -10 -10z"/>
<path d="M1100 6590 c0 -5 5 -10 11 -10 5 0 7 5 4 10 -3 6 -8 10 -11 10 -2 0
-4 -4 -4 -10z"/>
<path d="M1334 6566 c-3 -14 -4 -33 -1 -43 4 -14 5 -14 6 5 0 12 6 22 11 22 6
0 10 9 10 20 0 28 -18 25 -26 -4z"/>
<path d="M1045 6548 c-16 -4 -40 -6 -52 -3 -13 3 -23 1 -23 -5 0 -5 23 -10 51
-10 43 0 50 -3 47 -17 -3 -14 -13 -18 -46 -18 -23 1 -42 -3 -42 -7 0 -4 7 -8
15 -8 21 0 19 -18 -2 -23 -10 -2 -8 -3 5 -2 12 1 25 -1 27 -6 6 -9 45 -6 63 5
7 4 10 12 6 17 -3 6 -12 5 -22 -3 -13 -11 -14 -11 -10 2 2 8 15 16 27 18 18 3
22 -1 19 -19 -3 -21 1 -23 47 -23 28 0 61 2 75 4 22 4 25 1 28 -25 4 -30 4
-30 -17 -11 -12 11 -24 16 -29 11 -4 -4 -1 -10 6 -12 6 -3 12 -11 12 -19 0
-10 -13 -14 -45 -14 -25 0 -45 -4 -45 -10 0 -5 5 -10 11 -10 6 0 9 -9 6 -19
-6 -23 27 -59 38 -42 3 6 -1 11 -11 11 -12 0 -14 3 -5 13 8 10 7 17 -1 25 -9
9 -5 11 20 8 18 -2 35 0 37 5 3 4 18 3 34 -2 22 -8 28 -15 24 -30 -5 -16 0
-19 30 -19 l34 0 2 60 1 60 -44 0 c-46 0 -62 15 -45 41 16 25 10 39 -17 39
-21 0 -24 -3 -15 -13 6 -8 8 -17 4 -20 -10 -10 -43 -8 -43 2 0 5 -10 11 -22
13 -13 2 -22 9 -20 16 1 7 -9 12 -25 11 -25 0 -26 -1 -8 -9 22 -10 5 -13 -19
-4 -14 5 -14 8 -1 21 8 8 15 20 15 26 0 7 -4 6 -9 -2 -7 -11 -13 -12 -23 -4
-8 6 -24 7 -43 1z m125 -73 c24 -14 24 -14 3 -15 -30 0 -54 10 -47 21 7 12 14
11 44 -6z m110 -95 c0 -5 -4 -10 -10 -10 -5 0 -10 5 -10 10 0 6 5 10 10 10 6
0 10 -4 10 -10z"/>
<path d="M1175 6540 c-18 -7 -18 -8 -3 -15 11 -4 24 -1 33 9 18 18 5 21 -30 6z"/>
<path d="M1360 6485 c0 -22 4 -25 40 -25 22 0 40 4 40 10 0 5 7 7 15 4 10 -4
15 0 15 15 0 19 -6 21 -55 21 -52 0 -55 -1 -55 -25z"/>
<path d="M823 6483 c9 -2 23 -2 30 0 6 3 -1 5 -18 5 -16 0 -22 -2 -12 -5z"/>
<path d="M950 6480 c0 -5 5 -10 11 -10 5 0 7 5 4 10 -3 6 -8 10 -11 10 -2 0
-4 -4 -4 -10z"/>
<path d="M1440 6430 c0 -17 7 -20 40 -20 22 0 40 5 40 10 0 6 -11 10 -25 10
-14 0 -25 5 -25 10 0 6 -7 10 -15 10 -8 0 -15 -9 -15 -20z"/>
<path d="M1115 6421 c-30 -7 -30 -7 -5 -12 30 -6 50 -1 50 12 0 10 -1 10 -45
0z"/>
<path d="M1170 6420 c0 -5 7 -10 15 -10 8 0 15 5 15 10 0 6 -7 10 -15 10 -8 0
-15 -4 -15 -10z"/>
<path d="M1673 6390 c0 -25 2 -35 4 -22 2 12 2 32 0 45 -2 12 -4 2 -4 -23z"/>
<path d="M815 6410 c4 -6 11 -8 16 -5 14 9 11 15 -7 15 -8 0 -12 -5 -9 -10z"/>
<path d="M1048 6413 c7 -3 16 -2 19 1 4 3 -2 6 -13 5 -11 0 -14 -3 -6 -6z"/>
<path d="M1064 6373 c12 -12 54 -14 61 -3 4 6 -8 10 -31 10 -21 0 -34 -3 -30
-7z"/>
<path d="M1200 6331 c0 -19 15 -35 35 -37 21 -1 45 18 45 36 0 18 -3 19 -20 8
-16 -10 -24 -10 -40 0 -17 11 -20 10 -20 -7z"/>
<path d="M1417 6343 c-13 -12 -7 -33 8 -33 8 0 15 9 15 20 0 20 -11 26 -23 13z"/>
<path d="M1195 6280 c-3 -5 -1 -10 5 -10 7 0 8 -6 0 -19 -5 -11 -9 -30 -8 -43
2 -22 4 -23 85 -20 76 3 83 5 83 24 0 17 -5 20 -40 16 -38 -3 -40 -2 -40 23 0
22 -4 26 -19 22 -10 -3 -28 0 -39 6 -14 7 -23 8 -27 1z m17 -52 c-7 -7 -12 -8
-12 -2 0 14 12 26 19 19 2 -3 -1 -11 -7 -17z"/>
<path d="M1851 6254 c0 -11 3 -14 6 -6 3 7 2 16 -1 19 -3 4 -6 -2 -5 -13z"/>
<path d="M1378 5943 c12 -2 32 -2 45 0 12 2 2 4 -23 4 -25 0 -35 -2 -22 -4z"/>
<path d="M1528 5943 c7 -3 16 -2 19 1 4 3 -2 6 -13 5 -11 0 -14 -3 -6 -6z"/>
<path d="M1759 5943 c19 -4 21 -7 10 -14 -11 -7 -9 -9 8 -9 16 0 21 4 17 15
-4 9 -17 14 -33 14 -25 -2 -25 -2 -2 -6z"/>
<path d="M1845 5940 c-3 -5 1 -10 10 -10 9 0 13 5 10 10 -3 6 -8 10 -10 10 -2
0 -7 -4 -10 -10z"/>
<path d="M1537 5933 c-40 -2 -65 -8 -62 -13 7 -11 111 -2 135 11 8 5 11 8 5 7
-5 -1 -41 -3 -78 -5z"/>
<path d="M1655 5930 c-23 -5 -16 -7 28 -6 35 0 51 3 40 7 -22 9 -29 9 -68 -1z"/>
<path d="M1010 5920 c-8 -5 -12 -11 -9 -14 7 -8 49 5 49 15 0 12 -21 11 -40
-1z"/>
<path d="M1373 5903 c9 -2 23 -2 30 0 6 3 -1 5 -18 5 -16 0 -22 -2 -12 -5z"/>
<path d="M1020 5890 c0 -5 4 -10 9 -10 6 0 13 5 16 10 3 6 -1 10 -9 10 -9 0
-16 -4 -16 -10z"/>
<path d="M780 7250 c0 -5 7 -10 15 -10 8 0 15 5 15 10 0 6 -7 10 -15 10 -8 0
-15 -4 -15 -10z"/>
<path d="M825 7250 c-3 -5 -1 -10 4 -10 6 0 11 5 11 10 0 6 -2 10 -4 10 -3 0
-8 -4 -11 -10z"/>
<path d="M760 7200 c-12 -8 -11 -10 8 -10 12 0 22 5 22 10 0 13 -11 13 -30 0z"/>
<path d="M878 7193 c12 -2 30 -2 40 0 9 3 -1 5 -23 4 -22 0 -30 -2 -17 -4z"/>
<path d="M728 7163 c18 -2 45 -2 60 0 15 2 0 4 -33 4 -33 0 -45 -2 -27 -4z"/>
<path d="M820 7161 c0 -10 117 -7 127 3 4 3 -24 6 -60 6 -37 0 -67 -4 -67 -9z"/>
<path d="M630 7118 c0 -4 23 -8 52 -8 28 0 48 3 45 6 -10 10 -97 12 -97 2z"/>
<path d="M730 7079 c0 -11 33 -15 65 -9 27 6 25 7 -17 11 -27 2 -48 1 -48 -2z"/>
<path d="M768 6983 c7 -3 16 -2 19 1 4 3 -2 6 -13 5 -11 0 -14 -3 -6 -6z"/>
<path d="M1100 7030 c0 -5 19 -10 43 -9 32 0 37 2 22 9 -28 12 -65 12 -65 0z"/>
<path d="M2118 6793 c12 -2 32 -2 45 0 12 2 2 4 -23 4 -25 0 -35 -2 -22 -4z"/>
<path d="M2088 6703 c6 -2 18 -2 25 0 6 3 1 5 -13 5 -14 0 -19 -2 -12 -5z"/>
<path d="M2205 6631 c-3 -6 4 -9 15 -8 11 1 20 5 20 9 0 11 -28 10 -35 -1z"/>
<path d="M2063 6623 c15 -2 37 -2 50 0 12 2 0 4 -28 4 -27 0 -38 -2 -22 -4z"/>
<path d="M2148 6623 c6 -2 18 -2 25 0 6 3 1 5 -13 5 -14 0 -19 -2 -12 -5z"/>
<path d="M2038 6583 c7 -3 16 -2 19 1 4 3 -2 6 -13 5 -11 0 -14 -3 -6 -6z"/>
<path d="M2093 6583 c15 -2 39 -2 55 0 15 2 2 4 -28 4 -30 0 -43 -2 -27 -4z"/>
<path d="M2104 6538 c-3 -4 4 -8 15 -8 11 0 22 4 25 8 2 4 -4 8 -15 8 -11 0
-23 -4 -25 -8z"/>
<path d="M2174 6421 c-5 -5 -20 -11 -34 -14 -14 -2 -2 -5 25 -5 28 -1 46 2 40
6 -5 4 -13 10 -16 14 -3 4 -10 4 -15 -1z"/>
<path d="M2220 6401 c0 -4 11 -6 25 -3 14 2 25 6 25 8 0 2 -11 4 -25 4 -14 0
-25 -4 -25 -9z"/>
<path d="M2288 6403 c6 -2 18 -2 25 0 6 3 1 5 -13 5 -14 0 -19 -2 -12 -5z"/>
<path d="M2210 6370 c0 -5 7 -10 16 -10 8 0 12 5 9 10 -3 6 -10 10 -16 10 -5
0 -9 -4 -9 -10z"/>
<path d="M2173 6333 c9 -2 25 -2 35 0 9 3 1 5 -18 5 -19 0 -27 -2 -17 -5z"/>
<path d="M2070 6292 c0 -10 97 -8 107 1 3 4 -19 7 -50 7 -31 0 -57 -4 -57 -8z"/>
<path d="M1018 6183 c7 -3 16 -2 19 1 4 3 -2 6 -13 5 -11 0 -14 -3 -6 -6z"/>
<path d="M910 6110 c-21 -6 -19 -7 18 -11 24 -3 48 -1 55 4 8 6 8 7 -3 4 -8
-2 -22 -1 -30 3 -8 4 -26 4 -40 0z"/>
<path d="M820 6100 c0 -5 5 -10 10 -10 6 0 10 5 10 10 0 6 -4 10 -10 10 -5 0
-10 -4 -10 -10z"/>
<path d="M1053 6103 c9 -2 23 -2 30 0 6 3 -1 5 -18 5 -16 0 -22 -2 -12 -5z"/>
<path d="M910 6066 c0 -2 9 -6 20 -9 11 -3 18 -1 14 4 -5 9 -34 13 -34 5z"/>
<path d="M1008 6063 c7 -3 16 -2 19 1 4 3 -2 6 -13 5 -11 0 -14 -3 -6 -6z"/>
<path d="M808 6053 c12 -2 32 -2 45 0 12 2 2 4 -23 4 -25 0 -35 -2 -22 -4z"/>
<path d="M2046 6108 c3 -5 12 -7 20 -4 8 3 14 0 14 -7 0 -9 2 -9 8 0 4 6 21
13 37 15 17 3 4 5 -27 5 -35 1 -56 -3 -52 -9z"/>
<path d="M2161 6115 c9 -8 159 -11 159 -3 0 4 -37 8 -82 8 -45 0 -79 -2 -77
-5z"/>
<path d="M2330 6112 c0 -5 7 -9 15 -9 8 0 15 4 15 9 0 4 -7 8 -15 8 -8 0 -15
-4 -15 -8z"/>
<path d="M2135 6070 c3 -5 18 -10 32 -10 32 0 28 5 -10 14 -19 4 -26 3 -22 -4z"/>
<path d="M2208 6068 c12 -12 92 -17 92 -7 0 10 -4 11 -62 13 -21 1 -34 -2 -30
-6z"/>
<path d="M2315 6070 c-3 -5 1 -10 10 -10 9 0 13 5 10 10 -3 6 -8 10 -10 10 -2
0 -7 -4 -10 -10z"/>
<path d="M2096 6003 c4 -13 15 -18 39 -18 18 0 31 3 28 8 -2 4 -13 7 -24 7
-10 0 -19 5 -19 10 0 6 -6 10 -14 10 -9 0 -12 -7 -10 -17z"/>
<path d="M2219 6012 c11 -8 9 -11 -10 -15 -13 -2 19 -3 71 -1 117 3 110 2 110
13 0 5 -19 7 -42 5 -78 -7 -93 -7 -118 0 -18 5 -21 4 -11 -2z"/>
<path d="M3099 5863 c-13 -15 -12 -15 9 -4 23 12 28 21 13 21 -5 0 -15 -7 -22
-17z"/>
<path d="M3568 1653 c6 -2 18 -2 25 0 6 3 1 5 -13 5 -14 0 -19 -2 -12 -5z"/>
<path d="M815 5300 c11 -5 27 -9 35 -9 9 0 8 4 -5 9 -11 5 -27 9 -35 9 -9 0
-8 -4 5 -9z"/>
<path d="M878 5303 c7 -3 16 -2 19 1 4 3 -2 6 -13 5 -11 0 -14 -3 -6 -6z"/>
<path d="M197 5124 c-12 -12 4 -24 34 -24 31 0 39 14 13 24 -20 8 -39 8 -47 0z"/>
<path d="M795 4963 c-16 -2 -97 -10 -180 -19 -140 -15 -205 -32 -205 -54 0 -5
5 -21 10 -36 8 -19 7 -30 -1 -40 -14 -17 -14 -17 31 -33 19 -7 44 -16 55 -21
11 -4 49 -18 85 -30 36 -13 101 -36 145 -52 92 -33 177 -50 186 -37 3 5 34 12
70 14 90 7 218 23 257 31 29 6 32 5 25 -12 -7 -18 -6 -18 11 -1 9 9 25 17 34
16 14 0 14 -2 -2 -8 -16 -6 -17 -9 -5 -13 18 -7 53 17 45 30 -3 5 6 14 20 21
20 9 25 17 22 39 -2 21 -13 32 -48 49 -25 13 -50 23 -57 23 -16 0 -211 62
-327 104 -54 20 -108 35 -120 35 -11 -1 -34 -4 -51 -6z m215 -67 c74 -25 176
-57 225 -73 79 -24 86 -28 55 -31 -19 -1 -104 -11 -188 -22 l-152 -19 -73 25
c-39 14 -90 29 -112 34 -47 10 -247 78 -255 87 -3 3 9 3 25 -1 17 -3 57 -1 90
5 33 6 101 17 150 24 50 7 92 13 95 14 2 1 65 -19 140 -43z"/>
<path d="M749 4870 c-30 -25 -14 -25 31 0 28 16 31 19 14 20 -12 0 -32 -9 -45
-20z"/>
<path d="M5837 1833 c6 -15 83 -18 83 -4 0 5 -20 11 -44 12 -32 3 -42 1 -39
-8z"/>
<path d="M7090 1480 c0 -5 7 -10 16 -10 8 0 12 5 9 10 -3 6 -10 10 -16 10 -5
0 -9 -4 -9 -10z"/>
<path d="M7120 1265 c0 -9 9 -15 25 -15 14 0 28 -7 31 -15 10 -25 24 -17 24
15 0 28 -2 30 -40 30 -29 0 -40 -4 -40 -15z"/>
<path d="M745 830 c-7 -12 12 -12 40 0 18 8 17 9 -7 9 -15 1 -30 -3 -33 -9z"/>
<path d="M1387 794 c-11 -11 3 -24 24 -24 12 0 19 5 17 13 -5 14 -31 21 -41
11z"/>
<path d="M360 760 c0 -5 9 -10 20 -10 11 0 20 5 20 10 0 6 -9 10 -20 10 -11 0
-20 -4 -20 -10z"/>
<path d="M283 743 c9 -2 23 -2 30 0 6 3 -1 5 -18 5 -16 0 -22 -2 -12 -5z"/>
<path d="M240 669 c0 -5 5 -7 10 -4 6 3 10 8 10 11 0 2 -4 4 -10 4 -5 0 -10
-5 -10 -11z"/>
<path d="M0 585 c0 -48 2 -55 20 -55 11 0 20 5 20 10 0 6 -4 10 -10 10 -23 0
-8 19 20 25 25 5 30 11 30 36 0 27 -2 29 -40 29 l-40 0 0 -55z"/>
<path d="M2505 585 c39 -18 55 -18 55 0 0 11 -11 15 -42 14 l-43 -1 30 -13z"/>
<path d="M80 540 c0 -5 18 -10 40 -10 22 0 40 5 40 10 0 6 -18 10 -40 10 -22
0 -40 -4 -40 -10z"/>
<path d="M0 258 l0 -258 305 0 c261 0 305 2 305 15 0 8 -9 19 -20 25 -11 6
-17 16 -14 25 4 9 1 22 -6 30 -11 13 -8 15 19 15 49 0 36 17 -19 24 -27 4 -52
10 -55 15 -3 5 -21 10 -40 11 -19 1 -45 2 -57 3 -13 1 -40 -2 -60 -6 -37 -8
-38 -7 -38 23 0 16 5 30 10 30 6 0 10 -4 10 -10 0 -5 9 -10 20 -10 11 0 20 4
20 9 0 6 10 9 23 9 50 -3 77 3 77 16 0 7 -14 16 -31 20 -46 9 -56 8 -74 -11
-11 -11 -19 -13 -24 -5 -3 6 -19 15 -34 21 -24 9 -26 14 -17 30 7 14 7 22 -1
26 -6 4 -13 -2 -16 -14 -3 -12 -13 -21 -23 -21 -10 0 -20 -5 -22 -11 -2 -6
-14 -5 -33 5 -17 9 -36 16 -42 16 -26 0 -13 38 17 52 25 10 27 14 12 19 -9 4
-22 3 -28 -2 -8 -6 -10 -2 -7 15 3 13 15 28 26 34 l22 11 -22 0 c-41 2 -24 21
20 22 l42 2 -40 6 c-22 3 -41 3 -43 -1 -6 -14 -22 -8 -22 7 0 14 -35 29 -56
24 -12 -3 -67 23 -76 36 -4 5 -8 -106 -8 -247z m105 102 c3 -5 -1 -10 -9 -10
-9 0 -16 5 -16 10 0 6 4 10 9 10 6 0 13 -4 16 -10z m395 -240 c0 -5 -4 -10
-10 -10 -5 0 -10 5 -10 10 0 6 5 10 10 10 6 0 10 -4 10 -10z m7 -86 c-3 -3
-12 -4 -19 -1 -8 3 -5 6 6 6 11 1 17 -2 13 -5z"/>
<path d="M3016 403 c-11 -11 -6 -23 9 -23 8 0 15 4 15 9 0 13 -16 22 -24 14z"/>
<path d="M185 300 c-3 -5 1 -10 9 -10 9 0 16 5 16 10 0 6 -4 10 -9 10 -6 0
-13 -4 -16 -10z"/>
<path d="M3325 300 c-3 -5 3 -10 14 -10 12 0 21 5 21 10 0 6 -6 10 -14 10 -8
0 -18 -4 -21 -10z"/>
<path d="M3580 170 c-12 -7 -12 -12 -3 -21 15 -15 26 -7 21 15 -2 11 -7 13
-18 6z"/>
<path d="M3694 111 c18 -7 66 -3 66 5 0 2 -19 4 -42 3 -31 0 -37 -3 -24 -8z"/>
<path d="M700 50 c0 -5 5 -10 10 -10 6 0 10 5 10 10 0 6 -4 10 -10 10 -5 0
-10 -4 -10 -10z"/>
<path d="M3700 35 c0 -9 5 -15 11 -13 6 2 11 8 11 13 0 5 -5 11 -11 13 -6 2
-11 -4 -11 -13z"/>
<path d="M690 15 c0 -11 11 -15 36 -15 31 0 35 2 24 15 -7 8 -23 15 -36 15
-15 0 -24 -6 -24 -15z"/>
</g>
</svg>
